<?xml version="1.0" encoding="UTF-8" standalone="no"?>
<!-- Generator: Adobe Illustrator 15.1.0, SVG Export Plug-In . SVG Version: 6.00 Build 0)  -->

<svg
   xmlns:dc="http://purl.org/dc/elements/1.1/"
   xmlns:cc="http://creativecommons.org/ns#"
   xmlns:rdf="http://www.w3.org/1999/02/22-rdf-syntax-ns#"
   xmlns:svg="http://www.w3.org/2000/svg"
   xmlns="http://www.w3.org/2000/svg"
   xmlns:sodipodi="http://sodipodi.sourceforge.net/DTD/sodipodi-0.dtd"
   xmlns:inkscape="http://www.inkscape.org/namespaces/inkscape"
   version="1.0"
   id="Layer_1"
   x="0px"
   y="0px"
   width="300px"
   height="296.765px"
   viewBox="0 0 300 296.765"
   enable-background="new 0 0 300 296.765"
   xml:space="preserve"
   inkscape:version="0.48.4 r9939"
   sodipodi:docname="thehartford.svg"><metadata
   id="metadata239"><rdf:RDF><cc:Work
       rdf:about=""><dc:format>image/svg+xml</dc:format><dc:type
         rdf:resource="http://purl.org/dc/dcmitype/StillImage" /><dc:title></dc:title></cc:Work></rdf:RDF></metadata><defs
   id="defs237" /><sodipodi:namedview
   pagecolor="#ffffff"
   bordercolor="#666666"
   borderopacity="1"
   objecttolerance="10"
   gridtolerance="10"
   guidetolerance="10"
   inkscape:pageopacity="0"
   inkscape:pageshadow="2"
   inkscape:window-width="918"
   inkscape:window-height="695"
   id="namedview235"
   showgrid="false"
   inkscape:zoom="0.79524199"
   inkscape:cx="150"
   inkscape:cy="148.38251"
   inkscape:window-x="338"
   inkscape:window-y="136"
   inkscape:window-maximized="0"
   inkscape:current-layer="Layer_1" />



















































































































<rect
   style="fill:none;stroke:none"
   id="rect3334"
   width="326"
   height="326"
   x="-12.574789"
   y="-17.917686"
   inkscape:export-filename="C:\Users\tipa_000\Documents\progs\devtalk2013\images\stag.png"
   inkscape:export-xdpi="44.040001"
   inkscape:export-ydpi="44.040001" /><g
   id="g3216"
   transform="translate(0.42271095,-3.3012644)"
   inkscape:export-filename="C:\Users\tipa_000\Documents\progs\devtalk2013\images\stag.png"
   inkscape:export-xdpi="44.040001"
   inkscape:export-ydpi="44.040001"><polygon
     id="polygon3"
     points="28.601,212.665 28.601,219.955 18.282,219.955 18.282,246.874 10.323,246.874 10.323,219.955 0,219.955 0,212.665 "
     style="fill:#95013d" /><polygon
     id="polygon5"
     points="41.416,212.669 41.416,226.07 54.626,226.07 54.626,212.669 62.59,212.669 62.59,246.878 54.626,246.878 54.626,233.157 41.416,233.157 41.416,246.878 33.44,246.878 33.44,212.669 "
     style="fill:#95013d" /><polygon
     id="polygon7"
     points="89.762,226.07 89.762,232.966 77.199,232.966 77.199,239.646 90.975,239.646 90.975,246.878 69.228,246.878 69.228,212.669 90.975,212.669 90.975,219.955 77.199,219.955 77.199,226.07 "
     style="fill:#95013d" /><path
     id="path9"
     d="m 60.662,296.199 -2.58,-6.206 H 46.223 l -2.584,6.206 H 35.53 l 16.172,-34.504 h 1.084 l 16.168,34.504 h -8.292 z m -8.486,-20.496 -3.428,8.225 h 6.805 l -3.377,-8.225 z"
     inkscape:connector-curvature="0"
     style="fill:#95013d" /><path
     id="path11"
     d="m 92.42,296.203 -5.849,-11.157 c -0.474,0.041 -0.897,0.041 -1.367,0.041 -1.163,0 -1.827,-0.041 -2.944,-0.096 v 11.212 h -7.973 v -33.905 c 2.908,-0.315 6.095,-0.561 10.12,-0.561 10.696,0 14.913,5.101 14.913,11.345 0,4.071 -2.206,7.714 -5.907,9.903 l 8.063,13.218 H 92.42 z m -7.074,-27.354 c -1.209,0 -1.969,0.046 -3.086,0.221 v 9.442 c 1.025,0.074 1.595,0.128 2.529,0.128 3.793,0 6.231,-1.831 6.231,-5.263 0.001,-2.854 -2.243,-4.528 -5.674,-4.528"
     inkscape:connector-curvature="0"
     style="fill:#95013d" /><polygon
     id="polygon13"
     points="137.684,296.203 137.684,261.978 159.438,261.978 159.438,269.272 145.655,269.272 145.655,276.804 157.465,276.804 157.465,283.783 145.655,283.783 145.655,296.203 "
     style="fill:#95013d" /><path
     id="path15"
     d="m 249.64,296.478 c -4.021,0 -6.28,-0.187 -10.488,-0.557 v -33.623 c 3.979,-0.415 6.741,-0.561 10.177,-0.561 14.249,0 20.896,7.39 20.896,17.044 -0.001,10.086 -6.324,17.697 -20.585,17.697 m 0.773,-27.629 c -1.371,0 -2.077,0.046 -3.295,0.183 v 20.164 c 1.458,0.146 2.064,0.188 3.793,0.188 7.507,0 10.83,-4.213 10.83,-10.602 0,-6.216 -3.938,-9.933 -11.328,-9.933"
     inkscape:connector-curvature="0"
     style="fill:#95013d" /><polygon
     id="polygon17"
     points="131.979,261.982 131.979,269.269 121.661,269.269 121.661,296.191 113.701,296.191 113.701,269.269 103.379,269.269 103.379,261.982 "
     style="fill:#95013d" /><polygon
     id="polygon19"
     points="9.255,261.978 9.255,275.383 22.465,275.383 22.465,261.978 30.429,261.978 30.429,296.191 22.465,296.191 22.465,282.47 9.255,282.47 9.255,296.191 1.275,296.191 1.275,261.978 "
     style="fill:#95013d" /><path
     id="path21"
     d="m 224.217,296.203 -5.845,-11.157 c -0.481,0.041 -0.901,0.041 -1.371,0.041 -1.167,0 -1.823,-0.041 -2.945,-0.096 v 11.212 h -7.972 v -33.905 c 2.904,-0.315 6.09,-0.561 10.12,-0.561 10.696,0 14.913,5.101 14.913,11.345 0,4.071 -2.202,7.714 -5.903,9.903 l 8.059,13.218 h -9.056 z m -7.078,-27.354 c -1.201,0 -1.961,0.046 -3.083,0.221 v 9.442 c 1.03,0.074 1.596,0.128 2.534,0.128 3.793,0 6.228,-1.831 6.228,-5.263 -0.001,-2.854 -2.244,-4.528 -5.679,-4.528"
     inkscape:connector-curvature="0"
     style="fill:#95013d" /><path
     id="path23"
     d="m 181.741,296.765 c -10.643,0 -17.438,-7.614 -17.438,-17.646 0,-10.082 7.12,-17.701 17.759,-17.701 10.613,0 17.455,7.619 17.455,17.701 0,10.031 -7.187,17.646 -17.776,17.646 m 0.15,-28.236 c -5.438,0 -9.097,4.415 -9.097,10.589 0,6.118 3.659,10.601 9.097,10.601 5.438,0 9.09,-4.482 9.09,-10.601 -0.001,-6.174 -3.652,-10.589 -9.09,-10.589"
     inkscape:connector-curvature="0"
     style="fill:#95013d" /><path
     id="path25"
     d="m 107.687,117.694 v 23.192 c 12.362,-0.283 24.68,-0.387 36.851,-0.229 23.33,-9.858 45.201,-18.781 69.581,-22.387 0.162,-0.216 0.308,-0.415 0.42,-0.577 H 107.687 z"
     inkscape:connector-curvature="0"
     style="fill:#d3eefc" /><path
     id="path27"
     d="m 193.174,133.33 c 3.265,-2.031 4.225,-2.713 8.324,-3.946 0.648,-0.195 3.395,-1.928 3.88,-2.193 0.715,-0.399 1.529,-2.331 2.306,-3.099 1.948,-2.003 3.423,-3.24 5.741,-5.039 0.203,-0.166 0.465,-0.479 0.693,-0.781 -24.376,3.605 -46.247,12.528 -69.585,22.387 6.306,0.078 12.554,0.24 18.772,0.457 12.803,-4.588 26.395,-5.635 29.869,-7.786"
     inkscape:connector-curvature="0"
     style="fill:#b1e3fa" /><path
     id="path29"
     d="m 107.687,155.671 c 12.99,-4.864 25.104,-10.058 36.851,-15.013 -12.171,-0.158 -24.488,-0.055 -36.851,0.229 v 14.784 z"
     inkscape:connector-curvature="0"
     style="fill:#b1e3fa" /><path
     id="path31"
     d="m 138.178,171.705 c -0.457,-17.376 11.918,-25.867 25.128,-30.59 -6.215,-0.217 -12.462,-0.379 -18.772,-0.457 -11.743,4.955 -23.853,10.148 -36.851,15.013 v 32.298 c 11.686,1.69 22.756,2.272 33.195,1.865 -1.218,-3.107 -2.16,-6.601 -2.746,-10.344 -0.395,-2.269 -0.341,-4.104 -0.153,-5.782 0.103,-0.818 0.199,-1.616 0.199,-2.003"
     inkscape:connector-curvature="0"
     style="fill:#84d5f7" /><path
     id="path33"
     d="m 155.998,209.562 c -1.125,-1.093 -2.438,-1.948 -3.576,-2.97 -4.512,-4.08 -7.349,-7.735 -10.394,-14.062 -0.407,-0.852 -0.789,-1.762 -1.15,-2.692 -10.439,0.403 -21.51,-0.174 -33.195,-1.873 v 45.865 c 16.786,-1.279 35.28,-3.59 53.143,-6.547 0.121,-1.159 0.195,-2.156 0.237,-2.318 0,-0.063 0.253,-5.891 0.074,-6.081 -1.72,-2.892 -2.9,-7.125 -5.139,-9.322"
     inkscape:connector-curvature="0"
     style="fill:#38c6f4" /><path
     id="path35"
     d="m 260.545,175.369 c -0.54,3.178 -1.168,6.327 -2.676,11.154 0,0.008 -1.711,4.498 -2.401,5.94 -1.046,2.23 -1.641,5.333 -2.588,8.217 -0.05,0.124 -0.257,0.673 -0.561,1.433 -0.021,0.046 -0.208,0.449 -0.278,0.61 4.453,-1.661 8.744,-3.265 9.82,-3.522 v -25.987 c -0.615,0.835 -1.271,1.794 -1.316,2.155"
     inkscape:connector-curvature="0"
     style="fill:#38c6f4" /><path
     id="path37"
     d="m 227.752,201.424 c -0.938,-1.57 -1.641,-4.578 -2.937,-4.735 -1.246,0.951 -4.15,1.919 -7,2.654 0,0 -1.076,0.826 -5.089,1.396 l -3.186,0.444 c -1.542,0.216 -3.303,0.669 -4.939,0.678 -0.781,0.008 -1.504,0.037 -2.189,0.079 -0.336,1.582 -0.05,2.899 -1.757,3.352 -2.306,0.611 -6.925,-1.25 -11.569,0.956 -0.806,0.78 -1.429,1.707 -1.799,2.546 -1.657,3.772 -1.911,4.175 -3.336,6.027 -0.424,0.574 -4.07,4.354 -4.494,4.777 -1.642,1.637 -2.505,3.323 -3.017,4.902 22.536,-4.296 42.775,-9.492 55.528,-14.706 -1.143,-2.638 -2.248,-5.005 -2.339,-5.104 -0.847,-1.106 -0.946,-1.683 -1.877,-3.266"
     inkscape:connector-curvature="0"
     style="fill:#38c6f4" /><path
     id="path39"
     d="m 237.552,189.543 c 0.262,2.8 0.295,4.424 1.209,6.514 0.266,0.619 1.263,7.814 2.048,10.697 0.752,-0.221 1.749,-0.553 3.224,-1.076 0.149,-3.377 0.308,-13.322 0.415,-14.444 0.017,-0.17 0.059,-0.73 0.066,-0.901 0.017,-0.174 -0.058,-0.785 -0.146,-1.47 -2.11,0.451 -4.481,0.63 -6.816,0.68"
     inkscape:connector-curvature="0"
     style="fill:#38c6f4" /><path
     id="path41"
     d="m 284.281,6.709 c 1.042,2.497 5.08,11.149 4.59,13.613 -0.187,0.951 -0.614,3.432 -0.955,4.042 -0.116,0.236 -0.802,1.433 -1.533,1.358 -1.508,-0.121 -1.616,-4.648 -2.098,-6.057 -0.656,-1.828 -1.857,-3.224 -3.336,-4.894 -0.453,-0.511 -1.558,-1.325 -2.085,-1.766 -3.319,-2.933 -7.481,-8.985 -12.279,-10.106 -0.021,-0.009 -0.059,-0.018 -0.088,0.045 -0.021,0.05 0.029,0.188 0.112,0.274 0.175,0.17 1.309,1.026 3.605,3.398 1.313,1.358 3.104,3.103 4.171,4.623 1.263,1.808 4.42,4.632 5.513,6.244 0.743,1.108 1.795,2.916 1.981,4.586 0.125,1.093 0.125,1.425 -0.515,1.562 -0.399,0.125 -3.124,-0.914 -7.287,-1.233 -0.373,0 -3.867,-0.312 -4.249,-0.312 -5.268,-0.594 -4.939,-0.37 -9.422,-1.774 -2.991,-0.946 -6.643,-2.247 -9.903,-2.916 -0.398,-0.074 -4.706,-1.565 -4.977,-1.242 -0.195,0.212 1.255,1.109 1.558,1.242 1.268,0.565 4.952,1.932 6.364,2.601 1.786,0.881 3.398,1.579 4.993,2.197 2.476,0.977 4.819,1.865 7.798,2.555 -0.274,3.577 -0.977,9.555 -2.401,12.131 -2.837,5.154 -6.779,10.152 -10.938,14.053 -0.881,0.835 -1.732,2.061 -2.934,3.145 -1.021,0.943 -2.367,2.484 -3.34,2.713 -0.614,0.129 -1.462,-0.054 -2.172,0.096 -0.98,0.212 -1.758,0.76 -2.613,0.631 -0.843,-0.146 -1.13,-0.893 -1.865,-1.263 -0.98,-0.44 -2.559,-0.776 -3.771,-0.938 -0.919,-0.104 -1.297,0 -1.139,-0.835 0,-0.033 0.063,-0.083 0.096,-0.61 0.203,-2.726 0.241,-5.272 0.22,-7.199 -0.12,-7.881 -5.072,-14.141 -8.017,-19.467 -0.719,-1.304 -2.243,-4.27 -3.428,-5.628 -1.321,-1.479 -0.531,1.071 -0.324,1.894 0.25,0.943 1.08,2.015 1.351,2.805 0.203,0.448 0.374,1.108 0.531,1.558 1.559,4.648 5.542,10.921 6.132,16.541 0.033,0.354 0.112,0.807 0.091,1.056 -0.365,3.676 -0.901,8.304 -4.365,9.052 -0.208,0.066 -0.516,0.116 -0.723,0.116 -5.467,-0.033 -10.194,-7.527 -12.612,-11.449 -2.438,-3.979 -4.249,-7.609 -5.845,-12.715 -0.731,-2.359 -1.034,-9.252 -1.267,-11.744 -0.038,-0.411 -0.079,-2.991 -0.096,-3.331 -0.009,-0.142 -0.054,-0.333 -0.158,-0.333 -0.286,0 -0.719,2.335 -0.868,2.938 -0.498,1.985 -0.64,6.318 -0.64,8.092 0,4.923 1.458,9.857 3.456,14.166 1.192,2.616 3.822,7.821 5.293,10.318 0.432,0.735 1.536,2.16 1.462,2.704 -0.158,1.263 -2.567,1.238 -3.332,1.467 -3.78,0.557 -8.823,0.07 -13.251,-1.159 -4.274,-1.188 -8.246,-2.584 -11.773,-4.785 -0.378,-0.3 -0.797,-0.545 -1.046,-0.918 -4.703,-3.71 -7.536,-12.188 -8.55,-18.66 -0.146,-1.105 -0.232,-2.534 -0.229,-2.738 0.433,-0.107 0.802,-0.216 1.185,-0.303 4.968,-1.255 11.656,-5.588 15.391,-7.918 1.271,-0.772 2.525,-1.595 3.672,-2.559 0.142,-0.116 0.183,-0.179 0.146,-0.225 -0.021,-0.033 -0.12,-0.021 -0.262,0.029 -5.388,1.694 -12.583,6.144 -17.609,7.439 -0.365,0.096 -1.761,0.47 -2.688,0.628 0,-0.49 0.033,-1.45 0.037,-1.67 0.013,-0.586 -0.017,-1.126 -0.017,-1.625 0.573,-0.386 1.151,-0.988 1.948,-1.604 4.304,-3.394 7.179,-13.118 10.132,-17.92 0.029,-0.042 0.129,-0.204 0.092,-0.233 -0.042,-0.037 -0.116,0.017 -0.232,0.075 -5.181,2.442 -7.64,13.144 -12.275,16.205 -3.78,2.492 -8.516,4.403 -11.07,7.926 -0.291,0.411 -0.931,1.952 -1.454,2.098 -0.208,0.042 -0.96,0.723 -1.358,0.503 -1.38,-0.839 -2.621,-3.489 -3.573,-4.98 -1.358,-2.177 -0.984,-8.521 -0.701,-10.871 0.436,-3.631 3.427,-8.321 5.18,-11.313 0.037,-0.066 0.063,-0.095 0.037,-0.124 -0.021,-0.025 -0.074,0.008 -0.141,0.037 -0.694,0.278 -2.397,1.815 -2.684,2.123 -2.438,2.787 -5.575,7.432 -5.828,11.299 -0.254,3.635 0.743,11.731 3.115,14.124 0.42,0.511 0.852,0.951 1.375,1.342 2.903,2.601 4.245,6.472 5.729,10.228 0.47,1.242 0.977,2.201 1.782,3.327 2.65,3.976 7.681,6.123 12.184,8.366 4.267,2.11 9.28,4.3 14.074,5.82 3.024,0.964 7.024,1.948 10.639,2.604 1.375,0.27 2.58,0.523 3.265,1.109 0.49,0.407 0.798,2.127 1.08,2.974 0.346,1.093 0.757,2.156 1.052,2.983 0.797,2.222 1.283,4.357 2.114,5.974 1.171,2.159 3.942,3.086 6.497,4.037 0.332,0.055 1.898,0.528 3.734,0.424 1.171,-0.041 1.321,1.362 1.259,2.027 -0.05,0.947 0.083,1.578 0.063,2.53 -0.05,2.442 0.157,2.446 -0.154,4.536 -0.066,0.478 -0.627,1.948 -1.009,3.148 -0.088,0.187 -0.195,0.374 -0.233,0.544 -0.249,1.176 -0.386,3.353 -0.772,4.545 -0.349,1.242 -1.869,5.047 -2.251,10.842 -0.162,2.348 -1.026,4.565 -2.086,6.805 -0.498,1.06 -0.407,1.637 -0.797,2.825 -0.403,1.246 -0.632,2.201 -1.047,2.857 -0.162,0.249 -0.856,1.268 -1.284,1.612 -2.322,1.803 -3.797,3.036 -5.749,5.039 -0.772,0.764 -1.587,2.699 -2.302,3.099 -0.485,0.266 -3.224,2.002 -3.88,2.197 -4.1,1.233 -5.06,1.911 -8.324,3.942 -7.054,4.374 -55.897,4.158 -54.992,38.38 0,0.386 -0.1,1.175 -0.208,2.002 -0.183,1.674 -0.236,3.51 0.154,5.782 0.772,4.856 2.118,9.322 3.904,13.04 3.045,6.322 5.883,9.982 10.39,14.053 1.139,1.026 2.451,1.882 3.576,2.975 2.239,2.202 3.419,6.431 5.135,9.322 0.183,0.19 -0.07,6.019 -0.07,6.081 -0.042,0.162 -0.112,1.163 -0.237,2.318 -17.866,2.962 -36.356,5.268 -53.139,6.547 v 13.048 H 261.86 v -47.673 c -1.072,0.254 -5.363,1.857 -9.816,3.523 0.079,-0.166 0.262,-0.573 0.278,-0.615 0.304,-0.76 0.515,-1.309 0.561,-1.433 0.947,-2.879 1.542,-5.986 2.588,-8.213 0.69,-1.446 2.401,-5.94 2.401,-5.944 1.508,-4.827 2.14,-7.98 2.676,-11.154 0.095,-0.693 2.409,-3.572 2.409,-3.572 0.689,-0.897 1.233,-2.11 2.002,-3.207 0,0 3.727,-7.764 3.631,-14.481 -0.033,-1.233 0.349,-6.796 0.308,-11.618 0.028,-0.279 0.074,-0.523 0.074,-0.844 0,-0.914 -0.091,-1.757 -0.199,-2.613 0,-0.074 -0.004,-0.157 -0.017,-0.232 -0.021,-0.183 -0.013,-0.382 -0.033,-0.564 -0.191,-1.238 0.087,-3.681 0.021,-4.786 -0.083,-1.458 -0.59,-1.296 -0.697,-2.8 -0.079,-1.021 -0.407,-1.807 -0.669,-2.763 -0.191,-0.697 -0.586,-1.329 -0.918,-1.952 -0.063,-0.402 -0.1,-0.71 -0.1,-0.822 0.187,-5.205 -3.278,-11.391 -3.365,-11.61 -1.641,-3.785 -1.458,-3.926 -1.188,-8.566 -0.183,-5.674 -1.121,-8.752 -1.694,-10.189 -0.232,-0.133 -1.994,-3.909 -2.563,-5.139 -0.236,-0.507 -0.266,-1.067 -0.149,-1.566 0.387,-1.624 3.199,-2.094 4.337,-2.87 0.728,-0.478 1.541,-1.729 1.878,-2.626 0.033,-0.091 0.054,-0.166 0.054,-0.286 v -1.732 c 0,-0.142 -0.096,-0.236 -0.116,-0.361 -0.046,-0.262 0.033,-0.66 0.013,-0.951 0,-0.092 0.004,-0.175 0.024,-0.254 0.993,-3.062 2.02,-5.762 -0.901,-7.29 -1.192,-0.644 -2.808,-0.918 -2.737,-2.127 0.037,-0.914 1.213,-1.255 1.902,-1.703 1.849,-1.205 3.107,-2.322 4.154,-4.033 0.437,-0.752 0.437,-2.746 0.972,-3.262 0.366,-0.369 1.388,-0.681 2.077,-1.042 2.21,-1.139 4.387,-1.887 6.356,-3.028 5.346,-3.05 11.111,-8.907 15.216,-13.127 2.023,-2.077 5.28,-5.82 6.775,-8.524 1.192,-2.186 2.256,-7.523 2.401,-10.41 0.037,-0.686 0.199,-2.987 0.199,-3.095 -0.008,-0.116 -0.013,-0.237 -0.07,-0.241 -0.046,-0.008 -0.108,0.042 -0.129,0.104 -1.421,3.465 -2.779,9.771 -5.002,12.695 -1.653,2.152 -6.617,7.689 -9.06,9.264 -0.166,0.104 -0.271,0.17 -0.337,0.203 0.075,-0.187 0.188,-0.444 0.245,-0.618 0.108,-0.278 0.162,-0.586 0.199,-0.848 0.569,-3.494 2.193,-5.966 2.193,-11.885 0,-0.573 1.072,-1.608 1.351,-2.077 1.882,-3.194 2.098,-7.54 1.562,-10.813 -0.349,-2.151 -3.497,-7.723 -4.673,-9.043 -0.1,-0.129 -1.924,-2.348 -2.182,-2.073 -0.112,0.086 0.084,0.538 0.179,0.717 M 169.375,25.212 c 1.188,-1.479 3.93,-3.087 5.006,-3.752 0.133,-0.083 0.277,-0.187 0.361,-0.253 -0.15,1.259 -0.229,2.418 -0.316,2.953 -0.598,0.229 -1.645,0.59 -2.717,0.98 -0.644,0.229 -1.482,0.744 -2.438,1.006 -0.736,0.183 -0.212,-0.544 0.104,-0.934 m 3.141,17.189 c -0.42,-0.35 -0.818,-0.719 -1.151,-1.146 -1.275,-1.159 -2.268,-3.253 -2.82,-5.326 -1.056,-4.033 -2.156,-3.224 0.324,-5.712 0.606,-0.647 1.591,-1.296 2.704,-1.89 0.693,-0.349 1.661,-0.839 2.313,-1.01 0.2,-0.054 0.283,-0.091 0.623,-0.162 0.033,0.433 0.079,1.06 0.096,1.791 0.403,6.646 1.5,11.789 4.263,16.69 -2.477,-1.113 -4.085,-1.909 -6.352,-3.235 m 49.433,19.586 c -0.283,-0.24 -1.475,-0.436 -1.172,-1.387 0.104,-0.295 0.769,-0.512 0.964,-0.523 1.965,-0.374 5.205,0.568 4.138,2.438 0,0 -1.708,1.167 -1.799,1.171 0,0 -0.785,-0.319 -0.951,-0.419 -0.479,-0.312 -0.873,-1.055 -1.18,-1.28 M 176.44,224.504 c 0.512,-1.587 1.371,-3.27 3.017,-4.906 0.424,-0.419 4.07,-4.203 4.498,-4.777 1.426,-1.853 1.67,-2.255 3.336,-6.027 0.366,-0.839 0.984,-1.766 1.795,-2.542 4.645,-2.21 9.26,-0.349 11.569,-0.96 1.711,-0.452 1.416,-1.77 1.757,-3.352 0.689,-0.042 1.412,-0.071 2.186,-0.079 1.645,-0.009 3.401,-0.462 4.943,-0.678 l 3.182,-0.444 c 4.017,-0.569 5.093,-1.396 5.093,-1.396 2.85,-0.735 5.749,-1.703 6.995,-2.654 1.301,0.162 2.003,3.169 2.941,4.735 0.927,1.583 1.03,2.164 1.878,3.266 0.087,0.1 1.192,2.467 2.339,5.109 -12.753,5.209 -32.989,10.405 -55.529,14.705 m 68.007,-33.266 c -0.107,1.113 -0.262,11.058 -0.415,14.439 -1.471,0.523 -2.472,0.852 -3.22,1.071 -0.789,-2.883 -1.782,-10.069 -2.052,-10.688 -0.914,-2.094 -0.947,-3.722 -1.209,-6.521 2.339,-0.042 4.706,-0.221 6.816,-0.677 0.088,0.685 0.162,1.3 0.149,1.47 -0.006,0.171 -0.052,0.731 -0.069,0.906 m 37.379,-146.51 c -1.649,4.112 -7.328,7.522 -12.043,9.139 -1.313,0.437 -4.146,2.077 -5.01,1.467 -0.341,-0.258 1.467,-1.766 1.878,-2.103 4.096,-3.29 9.45,-5.773 13.533,-8.877 0.989,-0.781 1.865,-1.467 2.057,-1.666 -0.041,0.416 -0.046,1.151 -0.415,2.04 m -0.055,-6.805 c -4.05,5.031 -12.574,7.61 -17.186,10.843 -1.191,0.822 -2.151,1.919 -3.854,3.02 -0.515,0.308 -2.206,1.362 -3.353,1.886 -0.116,0.046 -0.681,0.532 -0.822,0.291 -0.274,-0.365 1.574,-2.463 1.77,-2.7 4.694,-6.031 8.977,-11.922 9.896,-21.045 0.174,-2.072 0.29,-3.771 0.174,-5.246 0.399,0 0.894,0.021 1.388,0.046 5.762,0.266 13.409,0.822 14.182,6.542 0.365,2.691 -1.027,4.905 -2.195,6.363"
     inkscape:connector-curvature="0"
     style="fill:#95013d" /><path
     id="path43"
     d="m 225.525,91.195 c 0.756,-0.549 0.274,-4.545 0.274,-4.661 0,-0.087 -0.54,0.557 -0.777,0.918 -0.24,0.374 -0.012,2.007 -0.012,2.057 0,0.058 0.012,0.229 0.024,0.303 0.021,0.046 -0.024,0.112 -0.096,0.138 -0.058,0.021 -0.307,0.345 -0.83,0.756 0.001,-0.001 -0.61,1.993 1.417,0.489"
     inkscape:connector-curvature="0"
     style="fill:#ffffff" /><path
     id="path45"
     d="m 262.011,82.098 c -0.926,-0.864 -0.561,0.315 -1.237,0.623 -0.969,0.549 -1.824,0.271 -3.336,0 -2.376,-2.098 -5.704,1.4 -8.732,-0.245 -0.278,-0.411 0.162,-0.731 0.399,-1.038 2.695,-0.221 0.885,0.606 3.718,0.017 0,0 1.237,-0.146 1.13,-0.479 -0.096,-0.315 -2.127,0.536 -4.416,-0.568 -2.422,-0.267 -0.831,2.068 -2.588,2.625 -0.673,0.212 -0.116,1.329 0.44,1.038 0.561,-0.29 1.163,-1.096 3.439,-0.527 1.209,1.275 1.782,-1.582 2.68,1.063 0.183,0.54 0.523,-0.054 0.523,-0.054 -0.079,-0.569 0.166,-0.777 0.411,-1.067 0.295,0.324 0.515,0.889 1.093,0.909 l 0.411,-1.32 c 0.598,0.76 1.707,1.15 2.8,1.146 1.287,-0.632 3.394,-0.337 3.265,-2.123"
     inkscape:connector-curvature="0"
     style="fill:#ffffff" /><path
     id="path47"
     d="m 248.884,68.389 c 0.582,0.59 1.732,0.562 2.348,0.154 0.644,-0.44 0.955,0.054 1.648,-0.054 0.702,-0.117 -1.366,-1.587 -1.508,-0.969 -0.091,0.528 -0.47,0.15 -0.964,0.374 -0.677,0.1 -0.98,-0.697 -1.449,-0.992 -0.017,-0.379 0.199,-0.632 0.469,-0.894 l 0.267,-0.232 c 0.561,-0.52 0.644,-0.901 0.166,-1.546 -0.516,0.641 -0.943,0.495 -1.653,0.495 -0.855,0.028 -1.222,0.369 -1.238,1.25 0.254,0.457 1.006,0.673 0.789,1.217 -0.365,0.781 -1.47,0.49 -1.936,0.212 -1.438,0.345 -2.933,0.545 -3.714,2.003 0.523,0.203 0.811,0.157 1.205,-0.233 l 0.345,-0.319 c 0.12,-0.125 0.232,-0.187 0.387,-0.187 1.747,-0.619 3.542,1.184 4.838,-0.279"
     inkscape:connector-curvature="0"
     style="fill:#ffffff" /><path
     id="path49"
     d="m 233.049,70.043 c -0.578,-0.092 -0.827,-0.304 -1.325,-0.283 -0.562,0.025 0.98,1.434 1.154,1.496 0.407,0.145 1.878,0.365 2.086,0.365 1.226,-0.153 1.466,-1.246 1.948,-1.861 -0.756,0.54 -2.559,0.482 -3.863,0.283"
     inkscape:connector-curvature="0"
     style="fill:#ffffff" /><path
     id="path51"
     d="m 234.564,67.068 c -0.938,-1.305 -2.575,0.083 -3.602,0.61 0.624,2.091 2.24,-0.714 3.602,-0.61"
     inkscape:connector-curvature="0"
     style="fill:#ffffff" /><path
     id="path53"
     d="m 251.713,73.341 c -0.187,1.126 -0.531,2.09 0.149,3.141 0.378,0.249 2.09,1.694 4.69,1.2 2.704,0.35 1.13,-3.631 4.794,-2.741 1.059,0.262 0.332,-0.715 1.188,-1.279 0,0 0.361,-0.357 -0.041,-0.47 -0.396,-0.112 -0.686,-0.199 -1.288,0.644 -2.206,0.042 -4.669,-2.089 -6.281,0.287 0.855,0.494 2.015,-1.047 2.941,0.129 0.153,1.225 -0.881,2.227 -1.853,2.255 -1.176,0.025 -1.434,-0.024 -2.567,-0.485 -1.55,-0.532 -0.648,-1.608 -0.761,-2.477 0.724,-1.35 2.298,-0.88 3.328,-1.67 -1.553,-0.346 -3.659,-0.162 -4.299,1.466"
     inkscape:connector-curvature="0"
     style="fill:#ffffff" /><path
     id="path55"
     d="m 231.98,84.199 c 0.101,-0.05 0.233,-0.074 0.357,-0.116 -0.166,-0.216 -0.452,-0.469 -0.677,-0.585 l -2.613,-1.188 c -0.004,-0.017 -0.017,-0.021 -0.017,-0.054 -0.17,-0.075 -0.332,-0.188 -0.494,-0.312 -0.029,-0.162 -0.079,-0.32 -0.149,-0.486 -0.075,-0.138 -0.166,-0.241 -0.253,-0.378 -0.018,-0.066 -0.025,-0.116 -0.042,-0.171 -0.029,-0.008 -0.059,-0.008 -0.079,-0.021 -0.037,-0.046 -0.054,-0.104 -0.104,-0.153 l -0.025,-0.47 c 0.623,0.188 1.77,0.756 2.252,1.192 l 0.349,-0.017 c -0.345,-0.818 -1.399,-1.222 -1.948,-1.902 -0.374,-0.482 -0.561,-1.089 -0.984,-1.554 l -0.025,-0.229 c 0.549,0.104 1.06,0.436 1.446,0.743 l 0.349,-0.024 c -0.22,-0.407 -1.01,-1.546 -1.566,-2.119 0.063,-0.149 0.179,-0.286 0.204,-0.436 0.063,-0.582 -0.407,-1.82 -0.756,-2.348 -0.429,0.291 -1.139,1.001 -1.62,1.554 l 0.033,0.059 c 0.203,0.756 0.17,1.632 -0.092,2.426 0.112,4.092 3.377,6.256 5.878,7.27 0.478,0.116 0.964,0.245 1.438,0.295 0.179,0 0.361,0.05 0.544,0.083 -0.133,-0.179 -0.262,-0.332 -0.395,-0.523 -0.345,-0.149 -0.57,-0.378 -1.011,-0.536"
     inkscape:connector-curvature="0"
     style="fill:#ffffff" /><path
     id="path57"
     d="m 239.172,64.543 -1.043,-0.77 c -0.984,-0.701 -1.807,-0.926 -3.17,-1.233 -2.974,-0.395 -4.698,0.677 -6.422,2.717 l 0.337,0.191 c 0.697,-1.118 1.421,-1.246 2.584,-1.766 0.668,-0.083 2.55,-0.553 3.086,0.332 -1.159,0.254 -3.069,0.528 -3.556,1.841 0.693,-0.54 2.085,-0.827 2.966,-0.582 0.561,0.278 1.172,0.735 1.79,1.163 0.146,0.108 0.316,0.179 0.474,0.282 -0.1,0.042 -0.253,0.101 -0.29,0.162 -0.623,1.388 1.475,1.408 1.429,0.333 0.656,0.199 1.325,0.245 2.102,-0.212 0.963,-0.83 0.111,-1.936 -0.287,-2.458"
     inkscape:connector-curvature="0"
     style="fill:#ffffff" /><path
     id="path59"
     d="m 223,66.241 c -0.104,-0.104 -0.088,-0.485 -0.191,-0.647 -0.693,-0.86 -1.591,-1.118 -2.446,-1.683 -0.673,-0.437 -1.284,-1.15 -2.036,-1.712 -2.019,-1.591 -4.291,-3.635 -6.908,-4.258 -0.519,-0.112 -1.77,-0.162 -1.919,0 -0.428,0.54 0.735,3.12 0.848,3.618 0.112,0.403 0,0.827 0.112,1.284 0.452,1.927 1.927,4.897 2.551,6.704 0.432,1.226 0.406,2.086 0.951,2.646 0.793,0.798 3.469,1.495 5.117,1.716 0.407,0.033 1.616,0.195 1.803,0.091 0.262,-0.107 1.056,-1.898 0.752,-2.33 -0.507,-0.723 -2.774,0.162 -3.851,0.104 -1.595,-0.07 -1.084,-0.772 -1.578,-2.227 -0.562,-1.653 -1.986,-2.829 -2.663,-4.586 -0.175,-0.486 -0.183,-1.184 -0.415,-1.911 -0.075,-0.19 -0.831,-1.254 -0.337,-1.591 0.278,-0.203 1.495,1.209 1.72,1.67 0.104,0.237 0.466,2.646 0.848,2.588 0.419,-0.083 0.332,-2.7 0.951,-2.355 0.258,0.146 -0.208,2.385 0.299,2.775 0.312,0.229 0.894,-0.108 1.093,-0.648 0.254,-0.17 -0.042,-0.889 0.308,-0.946 0.706,0.091 0.332,3.198 1.508,2.758 0.503,-0.183 -0.013,-1.467 0.407,-1.583 0.415,-0.124 0.935,1.819 0.959,2.023 0.017,0.133 -0.033,0.822 0,0.843 0.814,0.562 0.698,-1.682 0.977,-1.823 0.079,-0.033 1.812,1.471 1.79,1.404 0.071,0.527 -1.229,1.009 -1.263,1.154 -0.291,0.877 0.927,1.745 1.168,1.703 0.557,-0.062 0.813,-1.558 1.154,-1.703 0.245,-0.116 0.511,-0.756 0.229,-1.055 -0.305,-1.378 -1.208,-1.317 -1.938,-2.023"
     inkscape:connector-curvature="0"
     style="fill:#ffffff" /><path
     id="path61"
     d="m 174.688,182.489 c -0.677,-0.295 -0.623,0.549 -1.254,0.756 l -0.395,0.079 c -0.752,0.204 -0.724,0.283 -0.308,1.334 1.412,0.739 2.081,0.017 2.525,-1.467 0.001,0 0.121,-0.435 -0.568,-0.702"
     inkscape:connector-curvature="0"
     style="fill:#ffffff" /><path
     id="path63"
     d="m 169.84,185.061 c -0.715,0.337 -0.76,0.873 -0.698,1.541 l 0.029,0.482 c 0.437,0.395 0.752,0.486 1.192,0.236 l 0.245,-0.183 0.237,-0.146 c 0.353,-0.286 -0.021,-0.041 0.673,-0.44 0.697,-0.395 0.365,-0.701 -0.416,-1.071 -0.361,-0.182 -0.838,-0.257 -1.262,-0.419"
     inkscape:connector-curvature="0"
     style="fill:#ffffff" /><path
     id="path65"
     d="m 180.682,183.553 -0.262,0.332 -0.282,0.316 c -0.149,0.203 -0.353,0.457 -0.586,0.689 l 0.848,0.743 c 1.209,-0.61 1.824,-1.491 1.886,-2.721 l -0.111,0.013 c -0.687,0.021 -1.114,0.304 -1.493,0.628"
     inkscape:connector-curvature="0"
     style="fill:#ffffff" /><path
     id="path67"
     d="m 196.14,178.685 c -1.346,0.216 -2.501,-0.32 -3.336,0.992 l 0.494,0.424 c 1.196,0.669 2.26,-0.017 3.303,-0.411 0.149,-0.495 0,-0.653 -0.461,-1.005"
     inkscape:connector-curvature="0"
     style="fill:#ffffff" /><path
     id="path69"
     d="m 191.379,182.564 c -0.249,0.469 -0.142,0.76 0.104,1.25 l 0.245,-0.207 c 0.673,-0.523 2.189,0.178 2.276,-1.479 -0.73,-0.22 -1.246,-0.614 -2.085,-0.353 -0.216,0.253 -0.415,0.491 -0.54,0.789"
     inkscape:connector-curvature="0"
     style="fill:#ffffff" /><path
     id="path71"
     d="m 191.13,185.281 c -0.789,-0.059 -1.683,0.428 -1.296,1.043 0.577,0.968 1.595,0.473 2.483,0.419 l 0.133,-0.349 c -0.282,-0.171 -0.386,-0.195 -0.668,-0.354 -0.344,-0.261 -0.49,-0.394 -0.652,-0.759"
     inkscape:connector-curvature="0"
     style="fill:#ffffff" /><path
     id="path73"
     d="m 186.797,179.905 c -0.345,0.698 -0.715,1.01 -1.421,1.288 l -0.44,0.232 c -0.548,0.266 -0.76,0.37 -0.735,0.769 0,0.088 0.009,0.166 0.034,0.3 l 0.312,0.19 0.261,0.179 c 0.146,-0.195 0.35,-0.357 0.724,-0.369 0.054,0 0.104,0 0.157,0 h 0.304 c 0.046,0 0.083,0 0.129,0.012 0.104,-0.012 0.22,-0.033 0.386,-0.054 0.433,-0.844 1.612,-0.98 1.508,-1.67 -0.012,-0.108 -0.037,-0.262 -0.1,-0.398 -0.122,-0.321 -0.787,-0.462 -1.119,-0.479"
     inkscape:connector-curvature="0"
     style="fill:#ffffff" /><path
     id="path75"
     d="m 157.568,184.771 c 0.877,0.024 1.392,-1.675 2.344,-2.032 1.029,-0.286 1.948,-0.785 2.861,-1.229 0.333,-0.585 0.802,-0.772 1.297,-0.772 0.769,0 1.611,0.383 2.476,0.37 0.299,0 0.606,-0.066 0.972,-0.204 0.029,0 0.059,0 0.092,0.009 0.752,-0.009 1.388,-0.087 1.898,-0.229 l 0.315,-0.108 -0.146,0.312 c -0.253,0.557 -0.623,1.063 -1.246,1.367 -0.253,0.216 -0.598,0.291 -0.935,0.291 -0.61,0.004 -1.309,-0.204 -1.828,-0.204 -0.606,0.839 -2.214,0.852 -2.122,1.965 0.012,0.133 0.041,0.287 0.083,0.428 0.137,0.287 0.395,0.391 0.739,0.391 0.133,0 0.282,-0.013 0.428,-0.063 0.993,-2.193 4.761,0.033 6.099,-2.778 0.855,-2.468 4.142,-4.254 5.084,-4.587 0.042,-0.033 0.042,-0.07 0.042,-0.124 0.004,-0.212 -0.461,-0.599 -0.511,-1.076 -0.013,-0.199 0.07,-0.398 0.266,-0.565 l 0.452,-0.356 0.088,0.037 c 0.78,0.415 1.399,0.947 2.156,1.172 0.303,0.058 0.564,0.087 0.813,0.087 1.113,-0.025 1.546,-0.59 1.537,-0.993 -0.021,-0.328 -0.299,-0.636 -1.018,-0.636 -0.059,0 -0.137,0.005 -0.287,0.021 -0.419,-0.146 -0.979,-0.162 -1.437,-0.304 -0.171,-0.07 -0.312,-0.024 -0.383,-0.274 -0.012,-0.129 0.05,-0.162 0.162,-0.27 0.557,-0.232 1.122,-0.387 1.703,-0.64 3.166,-1.234 1.487,-2.064 2.576,-3.024 0.29,-0.245 0.673,-0.336 1.067,-0.336 0.49,0 1.034,0.091 1.549,0.091 0.624,-0.029 1.209,-0.149 1.687,-0.76 0.221,-0.267 0.445,-0.545 0.412,-0.848 0,-0.146 -0.046,-0.324 -0.171,-0.494 -0.096,-0.063 -0.17,-0.154 -0.253,-0.254 l -0.038,-0.066 v -0.063 c 0.225,-1.425 0.694,-1.894 0.641,-2.933 -0.017,-0.345 -0.532,-0.465 -0.698,-1.001 -1.072,0.553 -1.146,0.881 -1.965,1.562 0.063,0.906 0.236,1.102 0.498,1.948 l 0.055,0.191 -0.195,-0.013 h -0.146 c -0.245,0.025 -0.266,0.025 -0.536,0.283 l 0.237,0.896 -0.254,-0.062 c -0.319,-0.121 -0.614,-0.142 -0.885,-0.142 -1.139,0 -1.845,0.798 -2.497,1.604 -0.772,1.01 -1.408,2.011 -2.961,2.023 h -0.212 c -0.217,0.544 -0.49,0.785 -1.035,1.059 l -0.448,0.225 c -0.553,0.232 -1.146,0.531 -1.334,1.188 l -0.024,0.096 h -0.1 c -1.849,0.195 -1.205,1.637 -1.773,2.867 l -0.042,0.07 -0.083,0.017 c -0.212,0.013 -0.42,0.054 -0.582,0.079 l -0.802,0.585 c -1.316,0.278 -3.062,0.86 -4.652,0.894 -0.573,-0.013 -1.101,-0.07 -1.6,-0.245 -0.07,0.116 -0.229,0.391 -0.535,0.411 -0.079,0 -0.158,-0.021 -0.208,-0.05 l -0.341,-0.149 c -0.183,-0.096 -0.369,-0.142 -0.553,-0.162 -0.153,0 -0.312,0.063 -0.519,0.162 -1.222,0.059 -1.097,0.897 -1.766,1.67 -0.395,0.437 -0.682,0.652 -0.989,0.656 -0.469,-0.017 -0.73,-0.444 -1.146,-0.859 -0.469,-0.407 -0.83,-0.59 -1.283,-0.59 -0.229,0 -0.478,0.05 -0.677,0.104 -0.711,1.167 -1.812,1.15 -2.468,1.948 0,0.013 -0.241,0.507 -0.208,0.802 0.021,0.166 0.021,0.199 0.216,0.208 0.108,0 0.283,-0.042 0.54,-0.125 0.387,-0.266 1.019,-0.693 1.841,-0.827 l 0.063,-0.012 0.062,0.033 c 0.146,0.107 0.229,0.253 0.229,0.398 -0.008,0.516 -0.523,1.093 -0.523,1.563 0.341,0.284 0.616,0.376 0.835,0.376"
     inkscape:connector-curvature="0"
     style="fill:#ffffff" /><path
     id="path77"
     d="m 166.554,158.143 c -1.154,0.033 -2.015,0.52 -1.977,1.325 0.008,0.183 0.058,0.402 0.17,0.64 l 0.357,-0.188 0.029,-0.012 c 0.332,-0.005 0.527,-0.025 0.785,-0.108 0.905,-1.184 3.414,-2.019 3.821,-2.642 -0.041,-0.229 -0.066,-0.52 -0.149,-0.682 l -0.009,-0.025 c -0.124,-0.345 -0.232,-0.428 -0.577,-0.452 -0.17,0.415 -1.329,2.156 -1.961,2.223 -0.107,-0.017 -0.203,-0.033 -0.295,-0.079 h -0.194 z"
     inkscape:connector-curvature="0"
     style="fill:#ffffff" /><path
     id="path79"
     d="m 165.267,155.393 0,0 c -0.457,0.345 -0.719,0.627 -1.238,0.931 l 0.017,0.028 c 0.142,0.291 0.761,0.433 1.018,0.42 h 0.009 c 0.631,-0.059 1.524,-1.3 1.591,-1.637 -0.208,-0.074 -0.387,-0.1 -0.54,-0.1 -0.276,0 -0.517,0.1 -0.857,0.358"
     inkscape:connector-curvature="0"
     style="fill:#ffffff" /><path
     id="path81"
     d="m 153.303,177.646 c 0.004,0.055 0.017,0.108 0.004,0.133 0.278,0.254 0.47,0.429 0.748,0.416 0.146,0 0.341,-0.05 0.568,-0.162 0.084,-0.054 0.179,-0.12 0.291,-0.12 0.138,0 0.245,0.066 0.374,0.137 0.516,0.365 0.997,0.457 1.445,0.457 0.507,0 0.98,-0.162 1.413,-0.241 0.461,-0.157 1.404,-0.19 2.604,-0.353 l 0.677,-0.175 c 0.706,-0.054 1.338,-0.308 1.808,-0.848 0.456,-0.274 0.913,-0.374 1.375,-0.374 0.968,-0.008 1.882,0.35 2.795,0.44 1.146,-0.278 2.879,-1.292 2.792,-2.612 -0.021,-0.188 -0.066,-0.379 -0.137,-0.565 l -0.033,-0.096 0.066,-0.063 c 0.278,-0.295 0.515,-0.723 0.785,-1.051 l 0.262,-0.332 c 0.257,-0.291 0.552,-0.474 0.918,-0.478 0.12,0 0.273,0.021 0.415,0.045 0.075,0.025 0.146,0.046 0.236,0.046 1.122,0.013 2.867,-2.16 3.935,-2.372 0.972,-0.195 1.055,-0.656 1.35,-1.229 l 0.245,-0.266 c 0.229,-0.498 0.669,-0.59 1.226,-0.615 0.179,-0.893 0.523,-1.075 1.396,-1.441 0.973,-0.474 1.363,-0.644 1.649,-1.615 -0.183,-0.669 -0.52,-2.073 -1.126,-2.003 -0.116,0 -0.24,0.05 -0.345,0.071 -0.216,0.498 -0.187,1.018 -0.29,1.504 -0.271,0.893 -0.606,1.412 -1.616,1.495 -1.774,1.591 -3.34,2.446 -4.844,4.175 l -0.066,0.058 -0.079,-0.021 c -0.187,-0.021 -0.354,-0.037 -0.527,-0.037 -1.882,0 -3.378,2.227 -5.052,2.691 l -0.058,0.021 -0.05,-0.029 c -0.154,-0.104 -0.154,-0.237 -0.175,-0.407 0.021,-0.05 0,-0.1 -0.013,-0.149 v -0.133 c 0,-0.112 -0.008,-0.245 -0.029,-0.407 0.134,-0.391 0.387,-0.677 0.757,-0.777 l 0.332,-0.195 c 0.698,-0.277 0.885,-0.557 0.922,-1.271 -0.054,-0.108 -0.046,-0.125 -0.216,-0.125 -0.424,-0.017 -1.729,0.569 -5.192,2.722 l -0.079,0.045 -0.07,-0.045 c -0.254,-0.191 -0.283,-0.47 -0.42,-0.777 -0.125,-0.203 -0.203,-0.27 -0.357,-0.361 -0.432,0.149 -0.814,0.208 -1.047,0.453 l -0.07,0.058 -0.075,-0.037 c -0.502,-0.208 -0.876,-0.295 -1.171,-0.295 -1.521,-0.059 -1.238,2.372 -3.17,2.472 -0.195,0 -0.428,-0.013 -0.697,-0.1 -0.424,-0.195 -0.59,-0.507 -0.607,-0.798 -0.012,-0.461 0.225,-0.901 0.208,-1.143 -0.013,-0.153 -0.063,-0.257 -0.769,-0.257 -0.096,0 -0.216,0 -0.324,0.008 -0.262,0.013 -0.249,0.059 -0.531,0.199 l -0.565,0.291 c -0.373,0.249 -0.689,0.486 -0.896,1.088 -0.715,0.698 -2.227,0.403 -2.14,1.6 0.008,0.083 0.021,0.195 0.033,0.287 0.125,0.257 0.324,0.312 0.673,0.312 h 0.083 0.191 c 0.278,-0.149 0.706,-0.499 1.159,-0.516 0.278,0 0.581,0.158 0.673,0.437 l 0.478,0.149 0.677,-0.07 c 0.341,-0.395 0.756,-0.562 1.155,-0.562 0.798,0 1.583,0.482 2.264,0.482 0.44,-0.017 0.844,-0.183 1.238,-0.818 l 0.079,-0.129 0.12,0.1 c 0.236,0.17 0.432,0.212 0.586,0.212 0.448,0.017 0.822,-0.553 1.143,-0.988 0.137,-0.217 0.29,-0.35 0.561,-0.466 1.757,0.295 3.755,-0.19 5.367,1.196 l 0.054,0.046 0.004,0.054 -0.004,0.042 c 0,1.121 -1.799,1.263 -2.464,1.607 l -0.107,0.05 -0.079,-0.112 c -0.266,-0.428 -0.548,-0.531 -0.852,-0.531 -0.191,0 -0.398,0.054 -0.573,0.129 l -0.391,0.179 c -0.175,0.033 -0.328,0.066 -0.461,0.066 -0.236,0.004 -0.432,-0.083 -0.669,-0.271 -1.305,0.225 -1.213,0.827 -2.16,1.637 -0.208,0.05 -0.407,0.07 -0.594,0.07 -1.217,0.009 -1.753,-0.78 -2.945,-0.756 -0.249,0 -0.527,0.038 -0.777,0.071 -0.448,0.552 -0.951,0.743 -1.607,1.025 l -0.087,0.021 c -0.814,0.265 -1.603,0.306 -1.528,0.797"
     inkscape:connector-curvature="0"
     style="fill:#ffffff" /><path
     id="path83"
     d="m 151.869,183.989 c -0.021,-0.486 -0.349,-1.279 -0.507,-1.799 l -1.707,1.13 c -0.212,0.793 -0.806,1.18 0.112,1.911 l 0.336,-0.304 c 0.167,-0.008 0.333,0.133 0.449,0.199 0.761,-0.103 1.334,-0.394 1.317,-1.137"
     inkscape:connector-curvature="0"
     style="fill:#ffffff" /><path
     id="path85"
     d="m 150.116,180.067 0.354,0.233 c 0.511,0.382 0.935,0.456 1.495,0.05 0,-0.54 -0.232,-0.831 -0.673,-1.168 l -0.32,-0.253 c -0.606,-0.366 -0.769,-0.553 -0.602,-1.188 -0.964,-0.19 -1.168,0.183 -1.808,0.636 -0.187,0.125 -0.353,0.191 -0.507,0.245 -0.229,1.08 -0.557,1.616 -0.183,2.721 l 1.192,-1.113 c 0.35,-0.528 0.571,-0.474 1.052,-0.163"
     inkscape:connector-curvature="0"
     style="fill:#ffffff" /><path
     id="path87"
     d="m 149.156,175.091 c 0.611,0.009 0.919,0.457 1.218,0.499 0.229,-0.32 0.465,-0.516 0.465,-0.474 -0.012,-0.171 -0.19,-0.116 -0.286,-0.407 -0.133,-0.391 -0.225,-0.644 -0.225,-0.918 -0.017,-0.171 1.192,-1.412 -0.27,-0.827 -0.171,0.071 -1.076,0.3 -1.076,0.3 -1.533,0.419 -1.612,0.901 -2.58,2.039 l -0.017,0.017 c -0.083,0.088 -0.107,0.154 -0.107,0.154 0,0.028 0.066,0.141 0.345,0.253 l 0.332,-0.004 c 0.158,0 0.274,-0.004 0.391,-0.059 l 0.162,-0.054 c 0,0 1.574,-0.527 1.648,-0.519"
     inkscape:connector-curvature="0"
     style="fill:#ffffff" /><path
     id="path89"
     d="m 149.892,169.283 -0.041,0.059 -0.104,0.008 c -0.765,0.067 -1.38,0.466 -1.944,0.936 l -0.582,0.544 c 0.138,0.378 0.183,0.531 0.304,0.826 l 0.017,0.013 c 0.104,0.403 0.141,0.648 0.793,0.278 0.444,-0.258 0.395,-0.452 0.395,-0.452 0,0 0.748,-0.536 1.413,-0.536 0.245,0 0.76,-0.221 0.76,-0.221 0.299,-0.323 0.365,-0.107 0.478,-0.619 l 0.108,-0.507 c 0.017,-0.183 0.357,-0.81 0.054,-0.81 l -0.822,0.037 c -0.351,0 -0.646,0.116 -0.829,0.444"
     inkscape:connector-curvature="0"
     style="fill:#ffffff" /><path
     id="path91"
     d="m 151.483,165.342 -0.191,-0.333 c -0.341,-0.515 -0.632,-0.723 -1.056,-0.735 -0.133,0 -1.803,1.878 -2.662,2.717 h -0.033 c -0.295,0.2 -0.549,0.495 -0.818,0.86 -0.1,0.091 -0.171,0.142 -0.345,0.229 l -0.411,0.17 c -0.516,0.304 -0.549,0.449 -0.59,0.873 l 1.482,-0.287 c 1.55,-1.413 3.985,-1.4 4.624,-3.494"
     inkscape:connector-curvature="0"
     style="fill:#ffffff" /><path
     id="path93"
     d="m 168.872,159.219 c -0.864,0.561 -1.338,2.122 -2.675,2.592 l 0.889,0.66 c 1.753,-0.386 3.797,-0.395 4.527,-2.081 l 0.89,-1.171 0.107,-0.018 c 0.025,0 0.121,-0.021 0.229,-0.021 0,0 0.029,-0.017 0.05,-0.017 0.229,0 0.208,0.075 0.278,0.195 l 0.245,0.063 c 0.357,-0.17 0.278,-0.287 0.278,-0.474 0,-0.129 -0.033,-0.286 -0.083,-0.531 v -0.262 c -0.544,-0.374 -1.021,-0.532 -1.429,-0.512 -0.881,0 -2.31,1.646 -2.459,2.746 l -0.021,0.108 -0.117,0.037 c -0.095,0.037 -0.183,0.046 -0.278,0.046 -0.303,0.008 0.025,-0.407 -0.174,-0.507 l -0.033,-0.033 -0.017,-0.822 h -0.207 z"
     inkscape:connector-curvature="0"
     style="fill:#ffffff" /><path
     id="path95"
     d="m 163.667,153.557 0.07,-0.055 c 0.868,-0.507 2.272,-0.802 2.31,-1.392 -0.257,-0.232 -0.581,-0.345 -0.935,-0.345 -0.78,0.009 -1.57,0.611 -1.537,1.396 0,0.104 0.025,0.199 0.05,0.295 l 0.042,0.101 z"
     inkscape:connector-curvature="0"
     style="fill:#ffffff" /><path
     id="path97"
     d="m 148.015,162.417 c 0.004,0.125 -0.021,0.249 -0.063,0.391 -0.249,0.61 -0.52,1.246 -0.527,1.532 0.341,-0.12 1.383,-0.855 1.495,-1.188 l 0.175,-0.374 c 0.153,-0.382 0.436,-0.702 0.897,-0.814 l 0.041,-0.004 h 0.037 c 0.108,0.013 0.2,0.013 0.271,0.013 0.531,-0.013 0.98,-0.204 1.375,-0.453 l 0.44,-0.312 c 0.548,-0.398 1.063,-0.71 1.732,-0.719 0.045,0 0.111,0 0.203,0 l 0.054,0.009 0.038,0.037 c 0.303,0.245 0.577,0.349 0.806,0.341 0.22,0 0.44,-0.096 0.689,-0.312 l 0.378,-0.407 c 0.315,-0.357 0.594,-0.636 1.01,-0.636 0.257,0 0.502,0.096 0.826,0.308 0.914,-0.332 1.379,-0.739 1.924,-1.421 l 0.374,-0.673 0.087,-0.009 c 0.058,-0.033 0.112,-0.033 0.179,-0.033 0.369,-0.012 0.457,0.374 0.47,0.573 0,0.112 0,0.237 0.004,0.345 0.033,0.341 0.07,0.607 0.382,0.777 0.12,0.041 0.225,0.063 0.32,0.063 0.212,0 0.378,-0.096 0.557,-0.328 0.262,-0.304 0.299,-0.35 0.585,-0.582 -0.124,-0.124 -0.273,-0.262 -0.299,-0.511 -0.008,-0.212 0.108,-0.432 0.32,-0.656 0.266,-0.229 0.324,-0.399 0.315,-0.632 0,-0.07 -0.009,-0.162 -0.042,-0.266 -0.402,-0.149 -1.018,-0.336 -1.57,-0.315 -0.461,0.013 -0.859,0.133 -1.071,0.481 l -0.037,0.055 -0.059,0.016 c -1.512,0.433 -2.567,2.256 -4.391,2.381 l -0.033,0.021 -0.066,-0.024 c -0.765,-0.428 -1.404,-0.569 -1.974,-0.569 -0.918,0.004 -1.628,0.47 -2.322,1.021 l -0.822,0.694 c -0.278,0.232 -0.569,0.461 -0.885,0.627 -0.49,0.332 -1.084,0.361 -1.595,0.391 -0.171,0 -0.337,-0.029 -0.478,-0.009 h -0.075 c -0.337,0.009 -0.466,0.088 -0.47,0.104 v 0.021 c -0.107,0.119 0.69,0.311 0.795,1.046"
     inkscape:connector-curvature="0"
     style="fill:#ffffff" /><path
     id="path99"
     d="m 149.248,158.79 0.627,-0.315 c 1.301,-1.462 3.096,-1.836 4.657,-2.596 l 0.087,-0.038 0.079,0.042 c 0.304,0.146 0.54,0.19 0.756,0.157 0.619,-0.033 1.08,-0.485 1.753,-0.577 0.291,-0.037 0.603,0.075 0.906,0.324 0.245,0.07 0.469,0.083 0.677,0.054 0.789,-0.083 1.283,-0.606 1.853,-1.304 l 0.245,-0.357 c 0.142,-0.162 0.324,-0.262 0.287,-0.549 -0.005,-0.013 -0.005,-0.029 -0.005,-0.033 -0.211,0 -0.71,0.354 -1.097,0.411 -0.104,0.009 -0.228,-0.008 -0.332,-0.107 v -0.005 c -0.079,-0.074 -0.146,-0.178 -0.149,-0.295 -0.025,-0.402 0.312,-0.64 0.822,-0.88 0.989,-0.378 2.173,-1.047 2.031,-1.351 -0.008,-0.066 -0.12,-0.129 -0.469,-0.083 -0.378,0.05 -0.868,0.387 -1.338,0.42 -0.232,0.033 -0.349,0.424 -0.565,0.369 l -0.332,0.121 -0.054,-0.005 c -0.195,-0.054 -0.361,-0.062 -0.478,-0.045 -0.939,0.024 -0.739,0.996 -1.196,1.836 l -0.079,0.129 -0.116,-0.042 -0.274,-0.087 h -0.021 c -0.188,0.017 -0.407,0.024 -0.499,0.037 -3.198,2.355 -6.227,-0.623 -8.657,4.021 -0.037,0.037 -0.041,0.083 -0.037,0.129 0,0.191 0.482,0.536 0.918,0.619"
     inkscape:connector-curvature="0"
     style="fill:#ffffff" /><path
     id="path101"
     d="m 162.624,160.805 c -0.129,-0.045 -0.24,-0.074 -0.345,-0.058 -0.149,-0.017 -0.27,0.033 -0.386,0.108 l -0.059,0.037 -0.05,0.024 0.004,0.005 c -0.024,0.012 -0.066,0.028 -0.107,0.054 -0.088,0.054 -0.149,0.1 -0.308,0.124 -0.054,-0.021 -0.059,-0.021 -0.07,-0.021 -0.154,-0.05 -0.271,-0.146 -0.324,-0.253 l -1.313,1.279 h -0.055 c -0.723,0.083 -1.595,0.577 -2.463,0.61 -0.366,0.013 -0.752,-0.107 -1.093,-0.391 -0.286,-0.058 -0.523,-0.091 -0.752,-0.087 -1.184,-0.004 -1.795,0.977 -3.058,1.434 0.083,0.473 0.175,0.585 0.482,0.585 0.133,0.017 0.299,-0.037 0.536,-0.091 l 0.561,-0.208 0.074,0.112 c 0.112,0.149 0.175,0.308 0.191,0.44 0,0.332 -0.199,0.561 -0.432,0.855 l -0.32,0.299 c -0.303,0.328 -0.478,0.628 -0.465,0.977 -0.005,0.037 0.017,0.104 0.017,0.162 0.146,0.091 0.253,0.12 0.328,0.12 0.212,0 0.498,-0.273 0.78,-0.568 l 0.416,-0.396 c 0.096,-0.161 0.282,-0.24 0.415,-0.249 1.268,-0.232 1.94,-0.843 3.161,-1.259 -0.024,-0.124 -0.037,-0.27 -0.045,-0.398 -0.009,-0.291 0.021,-0.536 0.183,-0.723 0.162,-0.175 0.424,-0.232 0.739,-0.249 0.166,0 0.349,0.017 0.564,0.045 l 0.811,0.108 c 0.266,0.046 0.54,0.079 0.789,0.066 0.44,0 0.86,-0.1 1.167,-0.387 l 0.116,-0.1 0.125,0.116 c 0.332,0.233 0.632,0.337 0.935,0.316 0.245,0 0.486,-0.059 0.728,-0.166 0.606,-0.208 0.876,-0.287 1.275,-0.295 0.145,0 0.332,0.008 0.548,0.024 -0.319,-0.507 -0.665,-0.727 -1.487,-0.752 -0.187,0.129 -0.336,0.208 -0.486,0.208 -0.436,-0.033 -0.522,-0.416 -0.677,-0.694 -0.139,-0.318 -0.305,-0.609 -0.65,-0.763"
     inkscape:connector-curvature="0"
     style="fill:#ffffff" /><path
     id="path103"
     d="m 190.523,174.622 c -0.191,0.111 -0.407,0.312 -0.606,0.469 -0.361,0.237 -0.47,0.175 -0.877,0.116 0.1,0.689 0.266,1.102 1.067,1.163 0.461,0.083 0.773,0.046 1.259,0.2 0.142,-0.274 0.337,-0.44 0.606,-0.669 0.129,-0.225 0.35,-0.44 0.304,-0.785 -0.536,-0.814 -1.059,-0.993 -1.753,-0.494"
     inkscape:connector-curvature="0"
     style="fill:#ffffff" /><path
     id="path105"
     d="m 193.419,166.505 v -0.021 c -0.188,-0.764 -0.357,-0.818 -1.052,-0.835 l -0.802,0.133 c -0.157,0 -1.274,0.702 -1.445,0.728 l -0.403,0.636 c -0.24,0.407 -0.452,0.872 -0.444,1.296 0.017,0.183 0.063,0.353 0.175,0.553 l 0.059,0.066 -0.051,0.129 c -0.373,0.448 -0.926,0.212 -1.229,0.647 -0.017,0.1 -0.024,0.175 -0.024,0.245 0.008,0.245 0.129,0.395 0.424,0.632 l 0.498,0.402 -0.129,0.138 c -0.428,0.478 -1.042,0.474 -1.499,0.54 -0.328,0.116 -0.35,0.207 -0.35,0.299 -0.017,0.225 0.378,0.66 0.628,0.901 0.295,-0.199 0.677,-0.374 1.097,-0.382 0.212,0 0.436,0.033 0.64,0.153 1.109,-0.241 1.558,-0.581 1.516,-1.034 -0.008,-0.216 -0.116,-0.486 -0.369,-0.852 -0.295,-0.44 -0.636,-0.835 -0.66,-1.338 -0.029,-0.312 0.12,-0.64 0.444,-0.968 0.017,-0.225 0.174,-0.503 0.523,-0.503 l 0.507,-0.378 c 0.387,-0.095 1.946,-0.813 1.946,-1.187"
     inkscape:connector-curvature="0"
     style="fill:#ffffff" /><path
     id="path107"
     d="m 164.41,166.4 -0.133,0.104 -1.101,-1.268 c -0.199,-0.024 -0.403,-0.257 -0.594,-0.249 -1.126,0.021 -2.094,0.482 -2.555,1.338 l -0.075,0.137 -0.107,-0.074 c -0.142,-0.038 -0.258,-0.066 -0.354,-0.063 -0.407,-0.004 -0.765,0.336 -1.229,0.54 l -0.079,0.013 -0.059,-0.038 c -0.29,-0.19 -0.511,-0.245 -0.693,-0.236 -0.42,0.004 -0.789,0.365 -1.172,0.789 -0.244,0.271 -0.439,0.387 -0.66,0.387 -0.179,0 -0.324,-0.033 -0.523,-0.092 0.354,1.03 1.022,1.076 2.492,1.305 0.923,-0.154 2.277,-0.482 2.767,-1.205 l 0.029,-0.041 0.071,-0.013 c 0.05,-0.009 0.095,-0.009 0.145,-0.009 0.811,0 1.616,0.603 2.339,0.59 0.291,-0.004 0.59,-0.104 0.885,-0.395 l 0.055,-0.058 h 0.07 c 0.112,0.024 0.22,0.045 0.324,0.045 0.436,-0.021 0.839,-0.174 1.226,-0.369 l 0.448,-0.295 c 0.287,-0.171 0.544,-0.291 0.811,-0.315 0.319,-0.005 0.618,0.166 0.935,0.461 0.282,0.1 0.59,0.149 0.922,0.137 0.785,-0.013 1.633,-0.332 2.256,-0.632 l 0.365,-0.261 c 0.398,-0.479 0.735,-0.969 1.01,-1.521 l 0.033,-0.05 0.074,-0.025 c 0.092,-0.008 0.171,-0.024 0.262,-0.024 0.573,-0.005 1.637,-0.283 2.231,-0.304 0.116,0 0.253,-0.013 0.365,-0.037 1.321,-0.416 2.858,-1.94 3.145,-2.75 0,0 -0.859,0.074 -1.379,0.058 -0.516,0.017 -4.894,1.102 -7.553,3.506 -0.478,0.337 -0.984,0.457 -1.462,0.457 -0.664,0.021 -1.3,-0.145 -1.919,-0.124 -0.557,0 -1.073,0.124 -1.613,0.581"
     inkscape:connector-curvature="0"
     style="fill:#ffffff" /><path
     id="path109"
     d="m 193.934,169.454 -0.515,-0.1 c -0.573,-0.125 -0.437,-0.108 -1.047,0.332 -0.092,0.237 -0.125,0.432 -0.104,0.577 0.013,0.304 0.183,0.52 0.781,0.785 l 0.07,0.033 0.038,0.071 c 0,0.021 0.054,0.149 0.054,0.312 0.021,0.29 -0.079,0.727 -0.544,1.034 0.19,0.702 0.457,0.859 0.806,0.859 0.308,0.013 0.49,-0.17 0.922,-0.436 0.199,-0.166 -0.029,-0.278 0.183,-0.395 0.055,-0.345 0.195,-0.603 0.188,-0.818 -0.043,-0.995 0.294,-2.055 -0.832,-2.254"
     inkscape:connector-curvature="0"
     style="fill:#ffffff" /><path
     id="path111"
     d="m 178.473,160.141 c 1.241,-0.644 3.39,0.1 3.256,-2.144 -1.591,-1.101 -3.311,-0.066 -3.991,1.222 -0.262,0.481 -0.009,0.885 0.402,1.067 l 0.333,-0.145 z"
     inkscape:connector-curvature="0"
     style="fill:#ffffff" /><path
     id="path113"
     d="m 175.793,158.279 c 1.313,-0.395 1.799,-2.239 1.383,-2.704 -1.059,-0.021 -1.138,0.092 -1.849,0.765 l -0.266,0.229 c -0.345,0.224 -0.299,-0.05 -0.623,0.391 l -0.187,0.557 0.19,0.353 c 0.251,0.488 0.683,0.721 1.352,0.409"
     inkscape:connector-curvature="0"
     style="fill:#ffffff" /><path
     id="path115"
     d="m 170.061,154.744 c 0.017,0.623 0.469,0.565 1.329,0.839 l 0.008,-0.004 c 0.295,0.083 0.444,0.249 0.553,0.42 0.54,-0.868 0.922,-1.329 1.84,-1.907 l -0.037,-0.024 c -0.274,-0.183 -0.586,-0.282 -0.938,-0.282 -0.864,0.028 -1.895,0.511 -2.746,0.651 -0.009,0.112 -0.009,0.211 -0.009,0.307"
     inkscape:connector-curvature="0"
     style="fill:#ffffff" /><path
     id="path117"
     d="m 171.29,151.542 v -0.108 c -0.009,-0.146 -0.079,-0.245 -0.271,-0.382 l -0.278,-0.208 c -0.024,-0.021 -0.104,-0.054 -0.208,-0.149 -0.045,-0.009 -0.1,-0.009 -0.133,-0.029 -0.087,0 -0.133,0.029 -0.257,0.125 l -0.158,0.074 -0.066,0.037 -0.079,-0.037 c -0.112,-0.041 -0.229,-0.046 -0.324,-0.058 -0.702,-0.029 -1.977,2.164 -2.256,2.912 0.195,0.012 0.362,0.016 0.532,0.016 1.026,-0.012 2.783,-1.496 3.498,-2.193"
     inkscape:connector-curvature="0"
     style="fill:#ffffff" /><path
     id="path119"
     d="m 175.672,152.941 c 0.221,0.033 0.479,0.079 0.728,0.133 0.603,-0.299 0.656,-0.818 0.636,-1.399 l -0.009,-0.357 c 0.079,-0.37 -0.452,-0.785 -0.852,-0.615 -0.644,0.195 -1.067,0.906 -1.263,1.458 l -0.158,0.503 -0.091,0.332 c 0.399,-0.084 0.569,-0.129 1.009,-0.055"
     inkscape:connector-curvature="0"
     style="fill:#ffffff" /><path
     id="path121"
     d="m 196.646,173.895 c -0.075,0.482 -0.387,0.673 -0.694,0.802 0.37,0.249 0.757,0.466 1.022,0.511 0.349,0.033 0.494,-0.028 0.627,-0.677 0.009,-0.066 0.013,-0.153 0.017,-0.249 0.046,-0.387 0.017,-0.785 0.059,-1.151 0.063,-0.419 0.253,-0.813 0.714,-1.113 l -0.561,-0.681 c -0.922,0.1 -1.192,0.324 -1.267,0.781 -0.025,0.178 -0.025,0.423 0.028,0.718 l 0.025,0.486 c 0.046,0.158 0.075,0.312 0.046,0.453 -0.009,0.041 -0.009,0.054 -0.017,0.083 0.009,0.02 10e-4,0.037 10e-4,0.037"
     inkscape:connector-curvature="0"
     style="fill:#ffffff" /><path
     id="path123"
     d="m 193.688,176.067 -0.195,0.212 -0.212,0.336 c -0.258,0.47 -0.282,0.773 -0.772,0.873 0.149,0.236 0.22,0.249 0.586,0.266 h 0.116 l 0.208,-0.017 c 0.876,-0.374 1.898,-0.665 1.823,-1.4 0,-0.12 -0.029,-0.27 -0.092,-0.411 -0.273,-0.149 -0.494,-0.195 -0.66,-0.203 -0.302,0.007 -0.54,-0.063 -0.802,0.344"
     inkscape:connector-curvature="0"
     style="fill:#ffffff" /><path
     id="path125"
     d="m 179.785,154.661 c 0.474,-0.308 0.885,-0.61 0.855,-1.242 -0.523,-0.686 -1.2,-0.66 -1.819,-0.19 -0.549,0.353 -0.96,0.889 -1.251,1.503 l 0.873,0.457 c 0.465,-0.17 0.881,-0.262 1.342,-0.528"
     inkscape:connector-curvature="0"
     style="fill:#ffffff" /><path
     id="path127"
     d="m 182.705,156.917 c 0.087,0.918 0.357,1.616 1.508,1.79 0.282,-0.813 0.175,-0.64 0.96,-0.951 l 0.536,-0.063 c 0.178,-0.041 0.631,-0.183 0.76,-0.278 0.391,-0.295 0.59,-1.025 0.59,-1.479 -1.637,-0.681 -3.245,-0.398 -4.354,0.981"
     inkscape:connector-curvature="0"
     style="fill:#ffffff" /><path
     id="path129"
     d="m 183.577,163.397 0.532,-0.424 c 0.59,-0.615 2.114,-0.137 2.31,-1.778 -1.233,-1.292 -3.003,-0.229 -3.349,0.931 0.748,0.586 0.096,0.91 0.507,1.271"
     inkscape:connector-curvature="0"
     style="fill:#ffffff" /><path
     id="path131"
     d="m 191.143,178.007 c -1.01,-1.329 -2.521,-0.378 -3.045,0.532 0.054,0.636 0.249,1.043 1.013,1.08 0.49,-0.685 1.632,-0.199 2.032,-1.612"
     inkscape:connector-curvature="0"
     style="fill:#ffffff" /><path
     id="path133"
     d="m 187.997,175.116 -0.008,-0.017 c 0,-0.075 -0.07,-0.278 -0.142,-0.569 -0.507,-0.636 -1.479,-0.208 -2.297,-0.503 -0.403,0.25 -2.837,1.475 -2.726,3.157 0.021,0.291 -0.22,0.291 -0.028,0.569 l 0.05,0.104 -0.059,0.066 c -0.486,0.715 -1.267,0.894 -2.006,1.155 l -0.059,0.008 -0.054,-0.037 c -0.444,-0.216 -0.802,-0.303 -1.105,-0.303 -0.785,0.004 -1.263,0.647 -1.699,1.246 l -0.203,0.308 -0.17,0.282 c -0.308,0.328 -0.495,0.49 -0.731,0.49 -0.437,-0.033 -0.208,-0.361 -0.656,-0.686 -0.175,0.066 -0.848,0.349 -0.814,0.735 0,0.046 0,0.074 -0.008,0.063 l 0.406,0.24 c 0.138,0.312 0.47,1.188 1.113,1.155 0.05,0.008 0.134,-0.004 0.267,-0.017 0.216,0.07 0.395,0.083 0.548,0.083 0.956,0.029 1.034,-1.184 1.674,-1.911 l 0.063,-0.046 0.055,0.021 h 0.39 c 1.99,-0.021 2.547,-1.334 4.661,-1.729 l 0.536,-0.478 c -0.188,-0.64 -0.092,-0.918 -0.453,-1.321 l -0.029,-0.054 0.013,-0.059 c 0.125,-0.785 1.001,-0.806 1.43,-1.009 h 0.017 c 0.253,-0.096 0.415,-0.271 0.531,-0.424 0,-0.324 0.183,-0.54 0.457,-0.54 h 0.129 l 0.349,-0.009 c 0.225,0.009 0.37,0.025 0.478,0.025 h 0.08"
     inkscape:connector-curvature="0"
     style="fill:#ffffff" /><path
     id="path135"
     d="m 193.327,143.275 c 0,0 0.013,0 0.017,-0.013 0.232,-0.254 0.498,-0.511 0.855,-0.711 l 0.059,-0.012 c 0.149,-0.038 0.295,-0.101 0.49,-0.158 1.121,-0.304 1.649,-0.549 2.022,-1.724 -0.174,-0.295 -0.137,-0.295 -0.183,-0.278 -0.008,0 -0.024,0 -0.054,0.012 -0.042,0 -0.063,-0.024 -0.075,-0.012 -0.083,-0.013 -0.179,-0.013 -0.299,-0.013 -1.117,0.669 -2.787,1.611 -3.008,2.771 0,0.046 0.046,0.054 0.046,0.059 0.068,0.045 0.117,0.095 0.13,0.079"
     inkscape:connector-curvature="0"
     style="fill:#ffffff" /><path
     id="path137"
     d="m 198.735,149.685 v -0.004 c 0.366,-0.644 0.354,-0.781 0.486,-1.491 l -0.021,-0.482 c -0.245,-0.179 -0.457,-0.266 -0.582,-0.266 -0.074,0 -0.104,0.009 -0.146,0.054 -0.706,0.711 -1.274,1.72 -1.208,2.991 0.033,0.781 0.021,0.606 0.229,1.217 l 0.39,-0.398 c 0.063,-0.998 0.408,-0.757 0.852,-1.621"
     inkscape:connector-curvature="0"
     style="fill:#ffffff" /><path
     id="path139"
     d="m 190.598,164.187 c 0.179,-0.232 0.042,-0.391 0.444,-0.627 0.366,-0.225 0.495,-0.478 0.906,-0.611 -0.129,-0.107 -0.254,-0.216 -0.399,-0.315 l -0.262,-0.245 c -0.232,-0.153 -0.415,-0.291 -0.689,-0.291 -0.735,0.188 -1.143,0.599 -1.582,1.181 -0.278,0.323 -0.258,0.39 -0.312,0.515 -0.083,0.129 -0.175,0.208 -0.403,0.324 0.544,0.436 1.005,0.727 1.362,0.723 0.275,-0.002 0.553,-0.148 0.935,-0.654"
     inkscape:connector-curvature="0"
     style="fill:#ffffff" /><path
     id="path141"
     d="m 187.233,160.236 0.266,0.365 c 0.112,0.142 0.22,0.295 0.357,0.465 0.594,0.595 0.581,0.233 1.329,0.274 0,0 -0.225,-0.485 0.079,-1.009 0.245,-0.412 0.395,-0.761 0.677,-1.113 l -0.216,-0.274 c -0.47,-0.706 -0.86,-0.956 -1.574,-0.61 -0.361,0.71 -1.308,0.847 -0.918,1.902"
     inkscape:connector-curvature="0"
     style="fill:#ffffff" /><path
     id="path143"
     d="m 182.207,153.307 c -0.25,0.387 -0.029,0.656 0.323,0.814 l 0.316,-0.137 c 1.101,-0.466 2.999,0.063 2.912,-1.629 -1.407,-0.822 -2.953,-0.011 -3.551,0.952"
     inkscape:connector-curvature="0"
     style="fill:#ffffff" /><path
     id="path145"
     d="m 183.918,149.161 c 0.557,-0.332 1.01,-0.647 0.989,-1.333 -0.606,-0.731 -1.358,-0.698 -2.061,-0.204 -0.615,0.387 -1.08,0.977 -1.434,1.641 l 1.001,0.479 c 0.525,-0.196 0.985,-0.305 1.505,-0.583"
     inkscape:connector-curvature="0"
     style="fill:#ffffff" /><path
     id="path147"
     d="m 188.662,152.389 c 0.175,-0.494 0.096,-0.386 0.61,-0.577 l 0.333,-0.042 c 0.107,-0.028 0.391,-0.095 0.465,-0.166 0.258,-0.17 0.387,-0.602 0.387,-0.885 -1.022,-0.415 -2.04,-0.236 -2.742,0.586 0.046,0.56 0.216,0.98 0.947,1.084"
     inkscape:connector-curvature="0"
     style="fill:#ffffff" /><path
     id="path149"
     d="m 198.067,156.119 c 0.303,-0.225 0.448,-0.776 0.452,-1.126 -1.25,-0.519 -2.479,-0.299 -3.331,0.74 0.063,0.71 0.278,1.246 1.159,1.387 0.22,-0.635 0.12,-0.494 0.73,-0.727 l 0.411,-0.066 c 0.134,-0.025 0.484,-0.116 0.579,-0.208"
     inkscape:connector-curvature="0"
     style="fill:#ffffff" /><path
     id="path151"
     d="m 189.617,153.764 c -0.312,0.54 -1.125,0.673 -0.802,1.487 l 0.229,0.291 c 0.096,0.108 0.188,0.225 0.32,0.341 0.498,0.474 0.498,0.195 1.138,0.224 0,0 -0.199,-0.395 0.055,-0.769 0.22,-0.345 0.345,-0.606 0.586,-0.885 l -0.184,-0.216 c -0.402,-0.544 -0.727,-0.763 -1.342,-0.473"
     inkscape:connector-curvature="0"
     style="fill:#ffffff" /><path
     id="path153"
     d="m 193.605,158.334 -0.133,-1.043 c 0.033,-0.565 -0.544,-0.553 -0.86,-0.437 -0.008,0.453 -0.095,0.52 -0.602,0.586 l -0.271,0.058 c -0.1,0.033 -0.203,0.033 -0.319,0.079 -0.267,0.158 -0.374,0.341 -0.424,0.645 0.744,0.669 1.82,0.394 2.609,0.112"
     inkscape:connector-curvature="0"
     style="fill:#ffffff" /><path
     id="path155"
     d="m 192.857,161.682 0.267,-0.021 c 0.319,-0.366 2.33,0.179 1.79,-1.063 -0.54,-0.682 -1.4,-0.188 -2.168,-0.129 -0.312,0.278 -0.237,0.938 0.111,1.213"
     inkscape:connector-curvature="0"
     style="fill:#ffffff" /><path
     id="path157"
     d="m 205.968,139.274 c -0.17,0.258 -0.278,0.478 -0.573,0.52 -1.803,1.03 -2.551,1.292 -2.551,1.292 0.009,0.133 -0.257,0.843 -0.295,0.984 l -0.568,0.523 c -0.146,0.357 -0.233,0.603 -0.221,0.855 0.009,0.149 -0.291,-0.017 -0.216,0.199 v 0.063 c -0.046,0.527 -0.632,0.606 -0.852,0.827 l -0.677,0.402 c -0.453,0.387 -0.798,0.761 -0.798,0.761 l 0.428,0.357 c 0,0 1.773,-0.719 3.082,-1.105 0.457,-0.054 0.64,-0.682 1.209,-1.01 l 0.054,-0.033 h 0.067 c 0.22,0.104 0.153,0.179 0.199,0.237 0.028,0.066 0.05,0.149 0.087,0.236 0.033,0.154 0.087,0.341 0.1,0.407 l 0.029,0.066 -0.021,0.042 c 0.054,0.515 1.96,1.213 2.476,1.263 0.357,0.079 0.673,0.096 0.977,0.096 1.291,-0.017 2.155,-0.669 2.691,-1.94 -0.303,-0.087 -0.557,-0.153 -0.798,-0.137 -0.257,0.004 -0.511,0.058 -0.81,0.208 -0.378,0.174 -0.652,0.395 -1.067,0.395 -0.241,0.008 -0.503,-0.075 -0.802,-0.254 l -0.175,-0.083 0.083,-0.175 c 0.798,-1.595 1.172,-1.632 2.991,-2.102 0.964,-0.108 0.98,-0.877 1.001,-1.729 -0.291,-0.1 -0.565,-0.149 -0.798,-0.149 -1.358,-0.004 -2.077,1.45 -3.39,2.198 -0.074,0.033 -0.142,0.05 -0.208,0.05 -0.386,-0.038 -1.171,-0.221 -1.283,-0.844 0,-0.063 0,-0.125 0.017,-0.17 0.146,-0.42 0.826,-0.885 1.5,-1.475 0.689,-0.545 1.325,-1.205 1.296,-1.396 0,-0.017 0.008,-0.017 0,-0.037 0,-0.063 -0.059,-0.137 -0.191,-0.199 -0.116,-0.046 -0.249,-0.075 -0.274,-0.087 -0.153,-0.025 -0.286,-0.042 -0.402,-0.042 -0.403,0 -0.682,0.253 -1.001,0.606 l -0.316,0.38 z"
     inkscape:connector-curvature="0"
     style="fill:#ffffff" /><path
     id="path159"
     d="m 196.555,138.041 0.042,-0.033 h 0.096 0.465 c 0.07,0 0,0 0.142,-0.029 0.19,0.029 -0.096,0.398 0.245,0.619 0.033,0.041 0.078,0.058 0.146,0.041 0.395,0.038 1.191,-0.78 1.877,-1.296 0.154,-0.1 0.312,-0.162 0.457,-0.162 0.403,0 0.61,0.315 0.735,0.391 l 0.112,0.079 -0.037,0.149 c -0.35,1.089 -0.387,1.795 -1.699,2.223 l -0.449,0.474 c -0.004,0.245 -0.074,0.66 -0.307,1.104 0,0 -0.437,0.361 -1.151,1.151 -0.719,0.747 -1.429,1.694 -1.375,1.939 l 0.013,0.046 c 0.004,0 0.004,0.004 0.054,0.004 0.416,0.029 1.517,-0.64 2.46,-1.176 l 0.028,-0.033 h 0.038 c 2.039,-0.312 1.532,-2.625 2.708,-3.847 l 0.112,-0.129 2.081,-1.856 c 0.029,-0.153 0.104,-0.315 0.229,-0.424 0.324,-0.278 0.644,-0.461 0.848,-0.927 0.024,-0.05 0.029,-0.107 0.024,-0.183 -0.008,-0.494 0.055,-1.504 -0.507,-2.426 l -0.041,-0.054 0.021,-0.083 c 0.088,-0.291 0.37,-0.378 0.619,-0.378 l 0.623,-0.346 c 0.403,-0.021 0.64,-0.178 0.839,-0.498 0.274,-0.349 0.44,-0.403 0.416,-0.669 -0.021,-0.398 -0.308,-0.727 -1.351,-0.78 h -0.557 c -0.079,0.095 -0.199,0.194 -0.308,0.273 -0.187,0.304 -0.398,0.648 -0.789,0.873 l -0.037,0.024 h -0.059 c -0.05,0 -0.107,-0.008 -0.146,0 -0.402,0 -0.27,0.627 -0.436,0.693 -0.424,0.278 -0.424,0.154 -0.444,0.429 0.021,0.461 -0.175,0.734 -0.221,0.776 l 0.461,1.067 c -0.087,0.221 -0.24,0.553 -0.618,0.648 -0.262,0.004 -1.388,-0.855 -1.487,-0.49 -0.523,1.624 -2.248,1.545 -3.664,1.72 -1.429,0.236 -2.264,0.203 -2.173,2.538 -0.004,0.025 0,0.025 0,0.025 h 0.025 c 1.254,-0.022 1.121,-0.641 1.94,-1.467"
     inkscape:connector-curvature="0"
     style="fill:#ffffff" /><path
     id="path161"
     d="m 201.179,175.207 c -0.42,-0.323 -1.089,0.254 -1.089,0.254 -1.259,0.727 -2.529,0.041 -2.276,2.085 1.209,0.59 1.749,-0.573 2.671,-0.984 l 0.283,0.229 c 0.373,0.258 0.651,0.183 1.047,0.037 l -0.067,-0.627 c -10e-4,-0.001 -0.134,-0.699 -0.569,-0.994"
     inkscape:connector-curvature="0"
     style="fill:#ffffff" /><path
     id="path163"
     d="m 196.114,181.775 -0.323,0.017 c 0.257,0.618 0.473,0.88 1.229,0.913 0.54,0.071 0.631,0.021 0.951,0.37 l 0.187,-0.129 c 0.523,-0.402 0.619,-1.184 0.573,-1.724 -1.167,-0.44 -1.632,0.511 -2.617,0.553"
     inkscape:connector-curvature="0"
     style="fill:#ffffff" /><path
     id="path165"
     d="m 160.851,186.76 c 0.324,-0.598 0.448,-0.697 1.2,-0.395 1.226,-0.66 0.549,-1.379 0.848,-2.14 l -0.523,-0.232 c -0.864,2.023 -3.647,0.632 -4.856,2.713 -0.382,1.063 -0.157,2.621 0.374,3.515 l 0.901,0.278 c 0.868,-1.097 -0.212,-2.364 0.474,-2.983 0.983,0.303 1.361,-0.324 1.582,-0.756"
     inkscape:connector-curvature="0"
     style="fill:#ffffff" /><path
     id="path167"
     d="m 152.181,186.976 -0.245,0.233 c -0.183,0.236 -0.395,0.406 -0.636,0.623 0.453,0.34 0.748,0.49 1.168,0.129 0.19,-0.142 0.407,-0.354 0.697,-0.346 0.466,-0.22 0.848,-0.229 0.628,-0.909 -0.731,-0.494 -1.163,-0.204 -1.612,0.27"
     inkscape:connector-curvature="0"
     style="fill:#ffffff" /><path
     id="path169"
     d="m 163.991,188.363 0.341,-0.046 0.349,0.112 c 0.42,0.315 0.282,0.503 0.212,0.711 l 1.043,-0.055 c 0.406,-0.22 0.49,-0.544 0.452,-0.918 -0.013,-0.162 -0.024,-0.286 -0.024,-0.398 l -0.066,-0.254 0.021,-0.195 c -0.258,-0.074 -0.532,-0.17 -0.794,-0.273 l -0.568,-0.204 c -0.582,-0.208 -0.964,-0.319 -1.6,-0.328 l -0.249,1.392 c 0.177,0.357 0.467,0.477 0.883,0.456"
     inkscape:connector-curvature="0"
     style="fill:#ffffff" /><path
     id="path171"
     d="m 162.03,188.957 c -1.633,1.019 -1.126,2.256 -1.521,3.797 0.993,0.507 1.408,0.366 1.574,-0.618 l 0.071,-0.474 c 0.033,-0.117 0.091,-0.225 0.141,-0.341 0.171,-0.387 0.378,-0.449 0.715,-0.557 -0.124,-0.705 -0.22,-1.408 -0.98,-1.807"
     inkscape:connector-curvature="0"
     style="fill:#ffffff" /><path
     id="path173"
     d="m 236.875,105.443 c 0.066,0.063 0.091,0.096 0.153,0.133 0.107,0.021 0.107,0.021 0.142,0.021 0,0 0.016,-0.005 0.033,0 h 0.066 c 0,0 0.004,0 0.012,-0.005 h 0.042 c 0.187,-0.054 0.083,-0.058 0.116,-0.087 0.017,-0.029 0.017,-0.063 0.066,-0.187 0.004,-0.116 0.021,-0.267 0.046,-0.42 0.037,-0.299 0.656,-1.047 0.656,-1.267 0,-0.029 0.033,-0.029 -0.054,-0.104 -0.033,-0.037 -0.357,-0.332 -0.428,-0.332 -0.271,0.033 -0.735,0.149 -0.927,0.295 -0.249,0.212 -0.258,1.076 -0.271,1.084 v 0.025 c 0,0 -0.033,0.087 -0.062,0.174 v 0.025 c 0.021,0.166 0.266,0.386 0.282,0.44 0.053,0.081 0.09,0.176 0.128,0.205"
     inkscape:connector-curvature="0"
     style="fill:#ffffff" /><path
     id="path175"
     d="m 224.08,100.271 c -0.271,0.009 -0.411,0.146 -0.615,0.312 -0.229,0.225 -0.258,1.143 -0.266,1.159 0,0 -0.025,0.1 -0.046,0.204 v 0.017 c 0.013,0.183 0.266,0.411 0.274,0.473 0.037,0.092 0.104,0.175 0.125,0.212 0.062,0.067 0.107,0.112 0.166,0.158 0.091,0.025 0.096,0.025 0.146,0.025 h 0.008 0.075 0.012 0.042 c 0.195,-0.071 0.096,-0.088 0.129,-0.096 0.017,-0.038 0.017,-0.088 0.046,-0.208 0.021,-0.125 0.028,-0.286 0.05,-0.465 0.05,-0.304 0.66,-1.109 0.66,-1.338 0,-0.025 -0.315,-0.029 -0.378,-0.12 -0.029,-0.021 -0.362,-0.333 -0.428,-0.333"
     inkscape:connector-curvature="0"
     style="fill:#ffffff" /><path
     id="path177"
     d="m 247.31,107.346 c 0.054,0.337 0.042,1.185 0.1,1.404 0.017,0.029 0,0.029 0.07,0.108 0.025,0.033 0.636,0.282 0.69,0.282 0.178,-0.074 0.24,-0.22 0.328,-0.407 0.116,-0.282 -0.088,-1.204 -0.088,-1.204 v -0.021 c 0,0 0,-0.1 -0.012,-0.207 v -0.021 c -0.051,-0.174 -0.591,-0.373 -0.624,-0.432 -0.037,-0.07 -0.1,-0.17 -0.128,-0.195 -0.063,-0.054 -0.101,-0.079 -0.146,-0.1 -0.066,-0.013 -0.079,-0.013 -0.096,-0.013 -0.017,0.013 -0.017,0.013 -0.025,0.013 h -0.05 v 0.004 l -0.024,0.013 c -0.129,0.083 -0.059,0.066 -0.075,0.104 0,0.038 0.009,0.092 0.009,0.217 0.033,0.123 0.067,0.289 0.071,0.455"
     inkscape:connector-curvature="0"
     style="fill:#ffffff" /><path
     id="path179"
     d="m 234.191,102.553 c 0.054,0.095 0.137,0.183 0.203,0.245 0.092,0.058 0.133,0.033 0.17,0.058 h 0.1 0.021 0.058 0.029 c 0.137,-0.054 0.108,-0.063 0.137,-0.074 0.017,-0.055 0,-0.046 0,-0.055 0.021,-0.079 0.005,-0.656 0.101,-1.362 0.161,-0.988 0.797,-2.405 0.81,-2.837 -0.013,-0.029 0,-0.055 -0.046,-0.112 -0.05,-0.059 -0.137,-0.104 -0.232,-0.083 -0.203,0 -0.32,0.079 -0.465,0.179 -0.146,0.087 -0.283,0.207 -0.424,0.382 -0.199,0.225 -0.407,0.644 -0.578,1.043 -0.091,0.199 -0.157,0.365 -0.232,0.507 -0.021,0.079 -0.046,0.124 -0.063,0.162 -0.024,0.017 -0.024,0.028 -0.024,0.05 0,0 0,0.012 -0.009,0.012 h -0.012 c 0,0.029 -0.017,0.184 -0.063,0.424 -0.009,0.021 -0.009,0.029 -0.009,0.046 0,0.304 0.35,0.827 0.378,0.96 0.046,0.18 0.125,0.367 0.15,0.455"
     inkscape:connector-curvature="0"
     style="fill:#ffffff" /><path
     id="path181"
     d="m 227.939,103.226 c 0.054,-0.059 0.303,-0.345 0.307,-0.374 0.017,-0.042 0.066,-0.553 0.112,-1.146 0.025,-0.565 -0.153,-2.252 -0.149,-2.389 0,-0.12 -0.116,-0.354 -0.308,-0.203 -0.207,0.141 -0.548,0.876 -0.581,0.93 -0.017,0.071 -0.083,0.35 -0.112,0.523 -0.025,0.184 -0.129,0.74 -0.153,0.91 -0.033,0.137 -0.324,0.926 -0.562,1.421 -0.236,0.485 -1.537,1.487 -1.392,1.653 0.121,0.179 0.632,0.273 0.923,0.137 0.312,-0.137 1.458,-0.984 1.604,-1.104 0.128,-0.126 0.273,-0.275 0.311,-0.358"
     inkscape:connector-curvature="0"
     style="fill:#ffffff" /><path
     id="path183"
     d="m 225.638,96.097 c 0.199,-0.203 0.374,-0.71 0.523,-0.848 0.037,-0.062 0.112,-0.439 0.146,-0.469 0.021,-0.013 0.029,-0.021 0.029,-0.046 0.07,0.025 0.149,0.025 0.24,0.025 h 0.138 c 0.187,-0.025 0.474,-0.262 0.66,-0.32 0.315,-0.096 0.337,-0.395 0.337,-0.615 -0.013,-0.153 0,-0.561 0.008,-0.88 0,-0.104 -0.17,-0.025 -0.074,-0.262 0.266,-0.549 -1.03,-0.025 -1.03,-0.025 -0.167,0.536 -0.308,0.831 -1.052,1.72 -0.386,0.457 -1.014,0.877 -1.279,1.192 -0.129,0.17 -0.249,0.304 -0.341,0.398 -0.07,0.116 -0.111,0.154 -0.116,0.274 -0.021,0.037 -0.012,0.096 0,0.142 0.005,0.27 0.055,0.656 0.096,0.984 0.037,0.216 0.133,0.52 0.221,0.772 0.028,0.116 0.074,0.232 0.104,0.337 0.037,0.041 0.05,0.087 0.07,0.095 0.005,0.021 0.021,0.051 0.042,0.059 0.013,0.013 0.046,0.075 0.175,0.063 0.021,0 0.037,-0.013 0.058,-0.013 l 0.054,-0.037 c 0.129,-0.112 0.129,-0.225 0.129,-0.387 V 98.19 c 0,-0.008 -0.017,-0.008 -0.017,-0.024 -0.013,-0.217 0.042,-0.383 0.129,-0.956 0.023,-0.216 0.384,-0.714 0.75,-1.113"
     inkscape:connector-curvature="0"
     style="fill:#ffffff" /><path
     id="path185"
     d="m 229.896,106.811 c 0.033,-0.183 0.328,-0.661 0.387,-0.723 0.013,-0.079 0.166,-0.017 0.29,0.1 0.121,0.124 0.267,0.07 0.274,-0.142 0.029,-0.191 0.278,-0.972 0.37,-1.217 0.112,-0.262 0.465,-1.047 0.258,-1.404 -0.188,-0.345 -0.333,-0.955 -0.313,-1.146 0.029,-0.188 0.25,-0.706 0.25,-0.719 0.004,-0.021 0.041,-0.046 0.063,-0.059 0,0 0.22,-0.179 0.452,-0.411 0.245,-0.199 0.162,-1.2 0.092,-1.574 -0.083,-0.361 0.091,-1.661 0.141,-1.939 0.055,-0.287 0.545,-1.076 0.474,-1.271 -0.062,-0.199 -0.319,-0.225 -0.614,-0.037 -0.295,0.166 -1.18,1.142 -1.268,1.558 -0.078,0.411 -0.39,0.822 -0.332,0.855 0.037,0.009 0.212,0.802 0.254,0.835 0.054,0.05 0.054,0.129 0,0.183 -0.042,0.059 -0.283,-0.262 -0.52,0.079 -0.225,0.328 -0.415,1.445 -0.374,1.716 0.025,0.266 0.274,1.271 0.345,1.558 0.07,0.278 0.448,1.554 0.354,1.936 -0.116,0.403 -1.55,0.989 -1.587,1.018 h -0.063 c -0.021,0 -0.059,-0.028 -0.092,-0.028 -0.024,0 -0.157,0.028 -0.229,0.046 -0.087,0.05 -0.365,0.439 -0.432,0.606 -0.054,0.17 -0.254,0.689 -0.299,0.885 -0.071,0.179 -0.428,0.785 -0.54,0.931 0,0 -1.039,3.198 0,2.533 0.29,-0.199 0.972,-1.042 1.001,-1.059 0.017,0 0.033,-0.013 0.058,-0.013 h 0.029 c 0,0 0.096,-0.029 0.204,-0.05 0.104,-0.033 0.262,-0.47 0.332,-0.652 0.12,-0.183 0.361,-0.91 0.424,-1.159 0.083,-0.232 0.544,-1.041 0.611,-1.236"
     inkscape:connector-curvature="0"
     style="fill:#ffffff" /><path
     id="path187"
     d="m 234.415,118.006 c 0.324,-0.158 0.237,-0.549 0.516,-0.939 0.253,-0.395 1.549,-0.1 1.558,-0.074 0.008,0 0.448,-0.478 0.644,-0.855 0.221,-0.374 0.702,-1.721 0.989,-2.261 0.303,-0.557 0.34,-0.893 0.273,-0.955 -0.153,-0.236 -0.402,-0.149 -0.507,0.009 -0.107,0.17 -0.739,1.433 -0.935,1.641 -0.153,0.203 -0.797,0.876 -0.914,0.992 -0.145,0.117 -0.22,0.055 -0.194,-0.116 0.008,-0.179 0.149,-0.693 0.307,-1.15 0.2,-0.444 0.84,-1.611 1.052,-1.911 0.183,-0.266 0.307,-1.32 0.277,-1.532 -0.008,-0.216 -0.095,-1.97 -0.074,-2.103 0.037,-0.146 0,-0.647 0.12,-0.706 0.088,-0.05 0.25,-0.282 0.25,-0.282 0,0 0.111,-0.108 0.124,-0.108 0,0 0.029,-0.008 0.029,-0.024 0,0 -0.029,-0.055 -0.066,-0.154 -0.05,-0.066 -0.237,-0.229 -0.391,-0.124 -0.137,0.107 -0.531,0.798 -0.656,1.093 -0.1,0.307 -0.378,1.15 -0.465,1.508 -0.104,0.332 -0.391,1.379 -0.462,1.645 -0.062,0.274 -0.328,0.789 -0.349,0.818 0,0.021 -0.017,0.021 -0.025,0.025 -0.037,0.028 -0.244,0.245 -0.481,0.461 -0.241,0.258 -0.918,0.864 -1.15,1.071 -0.258,0.237 -1.18,0.328 -1.279,0.328 -0.088,0 -0.324,-0.041 -0.433,-0.083 -0.129,-0.008 0.079,-0.527 0.632,-1.076 0.714,-0.727 0.98,-1.491 0.972,-1.562 -0.021,-0.104 0.009,-0.544 0.021,-0.802 0.029,-0.22 0.354,-0.959 0.387,-1.08 0.013,-0.158 0.013,-0.553 0.004,-0.682 -0.004,-0.133 -0.166,-0.411 -0.187,-0.423 0,-0.042 -0.029,-0.075 -0.021,-0.121 0,-0.004 0.062,-0.19 0.124,-0.402 0.083,-0.2 0.64,-0.557 0.752,-0.724 0.104,-0.194 -0.063,-0.859 -0.063,-0.876 0,-0.033 -0.037,-0.129 -0.058,-0.153 -0.013,-0.021 -0.013,-0.096 0,-0.101 0.008,-0.033 0.083,-0.332 0.195,-0.677 0.087,-0.312 0.162,-1.188 0.162,-1.226 0,-0.041 -0.429,-0.216 -0.694,0.221 -0.225,0.432 -0.959,1.687 -0.914,1.724 0.096,0.021 0.291,0.146 0.354,0.166 0.054,0.046 0,0.204 -0.1,0.349 -0.125,0.154 -0.324,0.507 -0.49,0.802 -0.146,0.278 -0.254,1.192 -0.254,1.226 v 0.221 c 0.005,0.087 -0.066,0.133 -0.12,0.133 -0.079,0 0,0.308 -0.278,0.411 -0.274,0.1 -0.158,0.977 -0.258,1.292 -0.087,0.345 -0.515,0.972 -0.515,1.08 0,0.108 0.033,0.345 0.041,0.378 0.013,0.059 -0.008,0.12 -0.041,0.153 l -0.984,1.002 c 0,0 -0.806,0.922 -0.544,1.171 0.244,0.216 1.279,0.308 1.424,0.354 0.138,0.054 -0.39,0.49 -1.171,0.964 -0.794,0.481 -1.333,1.025 -1.259,1.042 0.079,0.021 0.527,0.378 0.71,0.345 0.179,-0.021 0.814,-0.34 0.947,-0.378 0.133,-0.017 0.553,-0.474 0.772,-0.647 0.25,-0.154 1.122,-0.977 1.393,-1.226 0.278,-0.262 1.18,-0.503 1.221,-0.482 0.054,0 0.241,0.046 0.332,0.063 0.092,0.021 0.129,0.121 0.092,0.183 -0.046,0.092 -0.735,1.001 -1.554,2.003 -0.806,1.014 -1.678,2.363 -1.678,2.4 0,0.017 -0.324,0.532 -0.262,0.565 0.195,0.183 0.415,0 0.635,-0.013 0.245,-0.021 0.977,-0.806 1.305,-0.765 0.336,-0.004 0.901,-0.876 1.212,-1.046"
     inkscape:connector-curvature="0"
     style="fill:#ffffff" /><path
     id="path189"
     d="m 248.859,111.022 c -0.063,-0.357 -0.818,-0.245 -0.848,-0.063 -0.017,0.079 -0.137,0.523 -0.137,0.545 -0.018,0.054 0.021,0.976 0,1.196 -0.033,0.262 0.033,1.283 -0.055,1.648 -0.074,0.374 -0.49,1.57 -0.573,1.815 -0.058,0.112 -0.096,0.254 -0.319,0.278 -0.225,-0.024 -0.254,-0.183 -0.3,-0.307 -0.054,-0.237 -0.128,-0.674 -0.203,-0.98 -0.021,-0.142 -0.025,-0.433 -0.025,-0.735 0,-0.462 0.005,-1.034 0.055,-1.367 0.07,-0.519 0.12,-1.89 0.12,-2.077 v -0.033 c 0,-0.107 -0.125,-0.693 -0.241,-1.025 -0.074,-0.237 -0.602,-1.313 -0.697,-1.417 0,0 -0.158,-1.342 -0.216,-1.462 -0.079,-0.112 -0.569,-0.267 -0.607,0.079 0.042,0.494 0.129,1.632 0.184,2.026 0.07,0.466 0.27,1.832 0.29,2.148 0.033,0.282 0.063,0.913 0.075,1.018 v 0.017 h -0.013 l 0.013,0.021 c -0.013,0.066 -0.029,0.203 -0.029,0.241 0,0.024 -0.013,0.046 -0.013,0.091 h -0.017 c -0.017,0.009 -0.017,0.017 -0.017,0.042 0,0.054 -0.017,0.108 -0.045,0.183 -0.063,0.149 -0.116,0.361 -0.167,0.599 -0.133,0.456 -0.673,0.955 -0.826,1.441 -0.278,0.636 -1.541,1.333 -1.773,1.433 l -0.354,0.407 c -0.187,-0.029 0.108,-0.531 0.108,-0.577 0,-0.042 0.137,-0.416 0.161,-0.486 0.059,-0.07 0.051,0.237 0.274,-0.723 0.195,-0.938 -0.398,-1.566 -0.398,-2.177 0,-0.271 -0.009,-0.47 -0.05,-0.557 -0.149,-0.424 -0.175,-2.057 -0.282,-2.442 -0.055,-0.258 -0.108,-0.894 -0.184,-0.947 -0.028,-0.046 -0.091,-0.075 -0.104,-0.162 -0.008,-0.037 -0.029,-0.146 -0.058,-0.258 0,-0.083 -0.005,-0.179 -0.005,-0.349 0,-0.208 0.005,-0.481 0.033,-0.682 0.013,-0.166 0.013,-0.523 0.013,-0.864 0,-0.216 0,-0.452 -0.013,-0.515 0,-0.096 -0.112,-0.341 -0.162,-0.374 -0.045,-0.058 -0.062,-0.1 -0.074,-0.183 0,0 -0.063,-0.444 -0.129,-0.938 -0.017,-0.162 -0.079,-0.416 -0.146,-0.636 -0.232,-0.191 -0.527,0 -0.54,0.133 -0.046,0.527 -0.606,1.624 -0.756,2.044 h 0.021 0.055 c 0.074,0.033 0.141,0.058 0.211,0.07 0.129,0.025 0.158,0.133 0.184,0.183 0.008,0.066 0.028,0.129 0.028,0.195 0,0.083 -0.021,0.142 -0.028,0.232 -0.025,0.2 -0.084,0.495 -0.112,0.645 v 0.241 c 0,0.27 0.008,0.644 0.041,0.859 0.046,0.287 0.341,1.271 0.357,1.305 0.009,0.033 0.013,0.083 0.013,0.096 -0.004,0.12 -0.088,1.853 -0.088,2.546 0,0.324 0.021,0.648 0.059,0.831 0.12,0.64 0.046,1.616 0.083,1.683 0.037,0.054 0.037,0.1 0.037,0.153 0,0.013 0,0.066 -0.028,0.1 -0.046,0.046 -0.046,0.046 -0.063,0.079 -0.004,0.024 -0.037,0.059 -0.075,0.083 -0.079,0.087 -0.157,0.188 -0.286,0.324 -0.229,0.241 -0.112,0.614 -0.449,0.988 -0.618,0.64 -2.048,3.345 -2.048,4.403 0,0.009 -0.17,0.906 -0.17,0.611 0.046,0.706 0.457,1.503 0.457,2.102 0,-0.021 0.606,0.548 0.619,-0.149 0,-0.507 -0.092,-1.089 0.19,-1.952 0.573,-1.712 1.566,-3.511 3.473,-3.714 0.112,-0.059 0.121,-0.071 0.225,-0.104 h 0.054 c 0.154,0.013 0.188,0.121 0.188,0.171 0.029,0.05 0.029,0.107 0.029,0.137 0,0.474 -0.466,1.724 -0.823,3.211 -0.307,1.342 -0.527,2.011 -0.652,2.56 0.055,-0.033 0.308,0.424 0.346,0.402 0.818,0.208 0.972,-0.793 1.067,-0.914 0,0 0.033,-0.021 0.033,-0.037 0.029,-0.041 0.041,-0.1 0.066,-0.183 0.046,-0.108 0.104,-0.32 0.158,-0.549 0.104,-0.444 0.22,-1.042 0.249,-1.628 0.083,-1.222 0.511,-3.477 0.673,-3.988 0.142,-0.465 0.743,-0.909 1.093,-1.15 0.129,-0.079 0.183,-0.116 0.278,-0.142 0.012,-0.012 0.058,-0.017 0.087,-0.017 0.183,0 0.312,0.146 0.312,0.291 v 0.038 c 0,0.166 0.511,2.467 0.848,5.097 v 0.066 c 0,0 -0.212,1.641 -0.212,3.515 0,0.195 0.004,0.386 0.033,0.585 0.083,1.704 -0.332,3.64 0.232,3.752 0.063,-0.046 0.287,0.062 0.295,-0.134 0.175,-0.137 0.603,-1.191 0.569,-1.777 v -0.137 c -0.017,-0.084 -0.029,-0.146 -0.029,-0.217 0.013,-0.673 0.411,-1.541 0.411,-1.877 0.009,-0.479 0.204,-1.03 0.204,-1.209 0.017,-0.217 0.017,-0.449 0.017,-0.595 v -0.091 c 0,-0.1 0.278,-1.762 0.224,-2.314 -0.05,-0.548 -0.345,-1.408 -0.349,-1.906 h -0.262 c 0.021,-0.557 0.262,-1.233 0.32,-1.388 v -0.037 c 0,-0.187 0.345,-0.765 0.345,-1.018 0.017,-0.328 0.415,-2.106 0.561,-3.194 0.116,-0.79 -0.104,-0.877 -0.066,-1.192 0,0 0.216,-0.527 0.208,-0.527 l -0.163,-0.483 z"
     inkscape:connector-curvature="0"
     style="fill:#ffffff" /><path
     id="path191"
     d="m 256.402,116.771 c 0.034,-0.05 -0.178,-1.075 -0.049,-1.753 0.111,-0.677 0.024,-2.301 -0.191,-2.604 -0.232,-0.278 0.336,-0.561 0.328,-0.586 -0.07,-0.033 -0.088,-0.104 -0.07,-0.17 0.021,-0.046 -0.167,-0.682 -0.108,-1.021 0.013,-0.346 -0.029,-0.474 -0.037,-0.636 -0.021,-0.146 0.024,-0.154 -0.021,-0.357 -0.05,-0.232 0.021,-0.278 0.071,-0.416 0.096,-0.178 0.12,-0.328 0.141,-0.328 0.033,0 0.133,-0.229 0.271,-0.461 0.029,-0.07 -0.166,-1.35 -0.237,-2.002 -0.054,-0.652 -0.432,-0.648 -0.432,-0.689 0,-0.042 -0.357,0.066 -0.411,1.371 -0.021,0.507 -0.138,1.175 -0.138,1.196 0,0.017 -0.021,0.054 -0.028,0.087 -0.029,0.017 -0.183,0.05 -0.191,0.253 -0.05,0.396 0,1.076 0.009,1.151 0.021,0.328 0.021,0.885 0,1.001 -0.009,0.107 -0.038,-0.232 -0.038,-0.212 -0.013,0.033 -0.05,0.054 -0.066,0.083 -0.017,0.013 -0.063,0.312 -0.141,0.698 -0.092,0.378 -0.499,1.782 -0.636,2.201 -0.154,0.416 -0.009,1.815 0.27,3.141 0.308,1.305 0.332,1.662 0.088,1.762 -0.357,0.187 -1.375,-0.84 -1.546,-1.338 -0.162,-0.478 -0.835,-1.537 -0.964,-1.994 -0.133,-0.453 -0.24,-0.848 -0.24,-0.852 0,-0.004 -0.013,-0.024 -0.018,-0.037 0,-0.009 -0.016,-0.154 -0.016,-0.225 0,-0.071 0.033,-0.731 0.07,-1.038 0.041,-0.304 0.225,-1.679 0.295,-2.144 0.058,-0.474 0.166,-1.146 0.203,-1.529 0.021,-0.369 -0.024,-1.545 -0.133,-1.811 -0.07,-0.278 -0.232,-0.254 -0.249,-0.221 -0.897,-0.033 -0.565,1.362 -0.644,1.537 -0.125,0.166 0.307,1.018 0.232,1.126 -0.07,0.133 -0.079,0.44 -0.1,0.481 -0.029,0.038 -0.038,0.088 -0.038,0.112 0,0.025 -0.017,0.07 -0.037,0.079 -0.017,0.009 -0.826,0.606 -0.926,0.951 -0.108,0.357 -0.262,0.956 -0.262,1.072 0,0.12 0.062,1.562 0.124,2.122 0.07,0.553 0.428,1.741 0.395,2.036 -0.054,0.303 -0.157,0.735 -0.203,0.979 -0.025,0.025 -0.025,0.059 -0.025,0.059 0,0 -0.295,1.467 -0.323,3.132 -0.009,0.715 0.656,0.827 0.769,1.546 0.216,1.433 0.822,3.917 1.038,4.337 0.241,0.424 0.332,0.689 0.424,0.689 0.087,-0.009 0.332,0.249 0.444,0.498 0.303,0.615 0.457,0.599 0.739,0.798 0.266,0.166 0.266,-0.295 0.271,-0.349 0.024,-0.063 -1.122,-3.419 -1.57,-5.949 -0.433,-2.525 -0.208,-3.967 -0.208,-4.07 -0.004,-0.079 0.046,-0.357 0.142,-0.328 0.091,0.028 0.893,0.187 1.063,0.668 0.133,0.495 0.756,2.755 1.055,3.951 0.291,1.188 0.195,1.782 0.299,1.878 0.112,0.107 0.881,0.806 1.122,0.942 0.236,0.125 0.47,0.245 0.478,0.245 0.017,0 0.133,-0.889 -0.515,-2.754 -0.674,-1.828 -0.807,-3.552 -0.661,-3.589 0.577,-0.171 2.169,1.333 3.024,3.198 0.839,1.856 1.172,2.601 1.3,2.451 0.337,-0.378 -0.149,-1.222 -0.323,-2.293 -0.166,-1.076 -1.351,-3.141 -2.04,-3.88 -0.702,-0.744 -0.81,-2.057 -0.827,-2.086 -0.014,-0.026 -0.014,-0.087 -0.003,-0.109"
     inkscape:connector-curvature="0"
     style="fill:#ffffff" /><path
     id="path193"
     d="m 259.174,114.703 c 0,0 0.245,-0.05 0.212,-0.146 -0.146,-0.486 0.315,-0.308 0.374,-0.308 0.037,0 0.137,0.042 0.162,0.075 0.012,0.041 0.889,1.399 1.495,2.177 0.498,0.627 0.702,0.702 0.776,0.647 0.083,-0.037 -0.498,-0.889 -0.424,-1.475 0.104,-0.561 -0.402,-1.163 -0.573,-1.226 -0.161,-0.078 -1.025,-0.935 -1.138,-1.362 -0.112,-0.436 -0.615,-2.446 -0.844,-2.982 -0.249,-0.569 0.092,-0.881 0.046,-0.927 -0.046,-0.033 -0.054,-0.124 -0.008,-0.157 0.041,-0.046 -0.1,-0.333 -0.071,-0.366 0.033,-0.037 0.125,-0.813 0.092,-1.204 0,-0.403 -0.142,-0.507 -0.195,-0.453 -0.05,0.083 -0.743,1.965 -1.076,2.759 -0.328,0.785 0.175,3.364 0.623,4.05 0.428,0.657 0.528,0.898 0.549,0.898"
     inkscape:connector-curvature="0"
     style="fill:#ffffff" /><path
     id="path195"
     d="m 214.289,180.578 c 0.332,0.005 0.602,-0.058 0.776,-0.253 0.108,-0.354 0.195,-0.354 0.183,-0.586 -0.021,-0.257 -0.116,-0.478 -0.419,-0.66 -0.217,0.619 -0.599,0.984 -1.097,0.984 -0.399,0 -0.848,-0.22 -1.33,-0.565 -0.141,0.079 -0.282,0.154 -0.469,0.179 -0.437,0.229 -0.772,0.429 -0.744,0.881 v 0.025 l 0.013,0.096 -0.041,0.05 c -0.162,0.174 -0.204,0.332 -0.204,0.461 -0.004,0.402 0.686,0.897 1.163,1.097 l 0.083,-0.848 c 0.183,-0.47 0.645,-0.594 1.063,-0.594 0.358,0 0.699,-0.245 1.023,-0.267"
     inkscape:connector-curvature="0"
     style="fill:#ffffff" /><path
     id="path197"
     d="m 213.566,183.603 c -0.175,0.399 -0.108,0.383 0.083,0.798 l 0.194,-0.195 c 0.486,-0.432 1.675,0.781 1.741,-0.656 -0.569,-0.203 -0.956,-0.536 -1.579,-0.332 -0.161,0.222 -0.352,0.128 -0.439,0.385"
     inkscape:connector-curvature="0"
     style="fill:#ffffff" /><path
     id="path199"
     d="m 209.175,137.588 c 0.258,-0.64 0.149,-0.527 0.831,-0.772 l 0.481,-0.054 c 0.142,-0.038 0.532,-0.146 0.64,-0.225 0.346,-0.241 0.516,-0.818 0.528,-1.188 -1.421,-0.544 -2.796,-0.315 -3.78,0.798 0.07,0.735 0.308,1.308 1.3,1.441"
     inkscape:connector-curvature="0"
     style="fill:#ffffff" /><path
     id="path201"
     d="m 229.306,96.313 c 0.1,-0.083 0.365,-0.312 0.403,-0.419 0.187,-0.274 0.1,-0.744 -0.025,-0.984 -1.283,0.212 -2.268,0.931 -2.617,2.06 0.32,0.466 0.735,0.735 1.541,0.429 -0.054,-0.536 -0.078,-0.403 0.354,-0.848 l 0.344,-0.238 z"
     inkscape:connector-curvature="0"
     style="fill:#ffffff" /><path
     id="path203"
     d="m 213.823,141.813 c -0.681,0.179 -1.051,0.553 -1.458,1.093 -0.266,0.308 -0.245,0.332 -0.308,0.47 -0.062,0.116 -0.149,0.19 -0.356,0.299 0.502,0.386 0.913,0.66 1.258,0.652 0.25,0 0.512,-0.138 0.864,-0.603 0.162,-0.199 0.029,-0.349 0.403,-0.586 0.324,-0.203 0.457,-0.415 0.855,-0.557 -0.149,-0.091 -0.249,-0.199 -0.387,-0.286 l -0.24,-0.221 c -0.22,-0.145 -0.393,-0.274 -0.631,-0.261"
     inkscape:connector-curvature="0"
     style="fill:#ffffff" /><path
     id="path205"
     d="m 212.586,151.002 c -0.258,0.303 -0.233,0.356 -0.304,0.485 -0.063,0.116 -0.153,0.188 -0.345,0.287 0.486,0.386 0.905,0.697 1.238,0.673 0.262,0 0.515,-0.154 0.859,-0.606 0.175,-0.199 0.046,-0.354 0.416,-0.59 0.345,-0.216 0.465,-0.428 0.852,-0.557 -0.129,-0.1 -0.25,-0.188 -0.387,-0.291 l -0.232,-0.225 c -0.232,-0.137 -0.391,-0.27 -0.64,-0.262 -0.668,0.159 -1.042,0.566 -1.457,1.086"
     inkscape:connector-curvature="0"
     style="fill:#ffffff" /><path
     id="path207"
     d="m 211.796,139.387 0.312,0.104 c 0.138,0.025 0.267,0.066 0.403,0.104 0.665,0.1 0.619,-0.088 1.366,-0.304 0,0 -0.29,-0.17 -0.041,-0.523 0.199,-0.295 0.303,-0.49 0.54,-0.76 l -0.237,-0.075 c -0.568,-0.187 -0.963,-0.187 -1.632,0.225 -0.295,0.46 -1.213,0.842 -0.711,1.229"
     inkscape:connector-curvature="0"
     style="fill:#ffffff" /><path
     id="path209"
     d="m 203.634,159.468 c -0.009,-0.154 -0.021,-0.333 -0.038,-0.503 -0.008,-0.225 -0.008,-0.461 0.05,-0.743 l 0.017,-0.096 0.101,-0.046 c 0.078,-0.017 0.178,-0.092 0.303,-0.162 l 0.354,-0.208 c 0.179,-0.216 0.465,-0.336 0.826,-0.336 0.864,-0.32 2.14,-0.881 2.057,-1.587 -0.021,-0.188 -0.104,-0.416 -0.328,-0.723 l -0.075,-0.071 0.025,-0.087 c 0.391,-1.524 2.205,-2.696 3.364,-3.618 -0.133,-0.286 -0.212,-0.548 -0.216,-0.806 -0.029,-0.565 0.271,-0.993 0.673,-1.508 l 0.387,-0.237 c 0.266,-0.328 0.428,-0.66 0.411,-0.997 -0.009,-0.166 -0.066,-0.349 -0.175,-0.515 -0.241,-0.237 -0.469,-0.349 -0.59,-0.349 -0.137,0.008 -0.232,0.054 -0.361,0.365 l -0.129,0.191 c -0.096,0.278 -0.253,0.161 -0.461,0.203 -0.527,0.44 -1.014,0.615 -1.454,0.615 -1.014,-0.021 -1.744,-0.719 -2.496,-0.678 -0.1,0.021 -0.225,0.021 -0.328,0.05 l -0.096,0.013 -0.075,-0.042 c -0.253,-0.203 -0.415,-0.249 -0.502,-0.249 -0.278,-0.07 -0.429,0.698 -0.977,1.063 -1.915,0.951 -2.921,4.179 -2.85,5.109 0,0.038 0.008,0.066 0.017,0.079 0.61,-0.013 3.311,-2.189 3.323,-2.446 0.029,-0.046 0.029,-0.066 0.029,-0.116 0.021,-0.134 -0.278,-0.245 -0.361,-0.619 0,-0.216 0.174,-0.32 0.356,-0.374 l 0.383,-0.133 c 0.395,-0.146 0.743,-0.328 0.893,-0.665 l 0.066,-0.107 0.162,0.024 c 0.686,0.199 1.97,0.881 2.53,1.292 l 0.141,0.096 -0.074,0.158 c -0.153,0.328 -0.411,0.598 -0.761,0.876 -1.18,0.822 -2.575,1.346 -2.496,2.567 0.013,0.225 0.07,0.49 0.195,0.785 l 0.024,0.058 -0.017,0.067 c -0.203,0.963 -0.789,1.316 -1.504,1.316 -0.262,0 -0.527,-0.037 -0.83,-0.063 l -0.881,-0.137 c -0.282,-0.037 -0.544,-0.059 -0.765,-0.046 -0.681,0.009 -1.176,0.183 -1.736,0.772 0.221,0.216 0.345,0.428 0.349,0.652 0.009,0.137 -0.004,0.262 -0.05,0.403 l 1.5,-0.84 0.108,0.059 c 0.606,0.42 0.706,0.942 0.719,1.416 v 0.067 c 0.008,0.386 0,0.668 0,0.896 0.021,0.361 0.083,0.615 0.356,1.105 0.919,-0.414 0.919,-0.709 0.907,-1.19"
     inkscape:connector-curvature="0"
     style="fill:#ffffff" /><path
     id="path211"
     d="m 215.336,163.854 c -0.167,1.773 -1.94,1.117 -2.722,2.206 -0.361,0.444 -0.585,1.034 -0.561,1.611 0,0.153 0.033,0.308 0.075,0.448 l 0.083,-0.066 c 0.747,-0.519 1.283,-1.354 2.061,-1.96 l 0.028,-0.046 h 0.025 l 0.249,-0.009 h 0.05 c 0.059,0 0.088,0 0.175,-0.017 h 0.029 c 0.207,-0.008 0.05,0.424 0.12,0.544 0.549,-0.178 0.947,-0.568 0.922,-1.121 -0.004,-0.037 -0.012,-0.092 -0.024,-0.129 l 0.07,-0.104 0.009,-0.075 c 0.395,-0.183 0.673,-0.503 0.93,-0.881 l 0.221,-0.356 c 0.286,-0.474 -0.009,-0.346 0.428,-0.346 0.162,0 0.312,-0.29 0.523,-0.236 0.315,-0.315 0.656,-0.332 0.59,-0.531 0,-0.055 -0.64,-0.134 -0.719,-0.279 -1.715,0.113 -1.109,0.575 -2.562,1.347"
     inkscape:connector-curvature="0"
     style="fill:#ffffff" /><path
     id="path213"
     d="m 210.098,168.315 c -0.162,0.013 -0.333,0.033 -0.44,0.066 -1.019,0.615 -1.454,1.06 -2.538,1.072 -0.245,0 -0.516,-0.009 -0.807,-0.037 -1.516,1.42 -1.578,2.438 -1.578,3.522 l 1.246,0.199 c -0.033,-0.266 -0.063,-0.494 -0.092,-0.719 -0.07,-1.271 1.754,-1.67 1.754,-1.67 1.657,-0.689 2.455,-0.785 3.473,-2.035 -0.213,-0.243 -0.591,-0.398 -1.018,-0.398"
     inkscape:connector-curvature="0"
     style="fill:#ffffff" /><path
     id="path215"
     d="m 214.695,169.188 c -0.548,-0.009 -0.141,0.448 -0.631,0.835 l -0.07,0.058 -0.108,-0.017 c -0.175,-0.037 -0.319,0.266 -0.47,0.266 -1.042,-0.066 -3.053,1.375 -3.082,1.434 -0.731,1.105 -0.984,2.048 -2.243,3.008 0.271,0.195 0.47,0.299 0.665,0.307 0.195,0.009 0.436,-0.062 0.764,-0.332 0.291,-0.253 0.494,-0.636 1.076,-0.664 0.407,-1.559 1.475,-2.04 3.182,-2.401 v -0.013 l 0.724,-1.296 c 1.578,-0.378 1.499,-0.354 2.135,-1.4 -0.324,0.088 -0.586,0.158 -1.026,0.188 l -0.916,0.027 z"
     inkscape:connector-curvature="0"
     style="fill:#ffffff" /><path
     id="path217"
     d="m 213.32,176.611 c 0.055,-0.448 0.262,-0.855 0.574,-1.188 0.157,-0.162 0.345,-0.324 0.506,-0.437 l 0.37,-0.278 -0.236,-0.814 -0.059,0.017 c -0.905,0.166 -1.143,0.615 -1.466,1.051 l -0.195,0.354 c -0.32,0.42 -0.611,0.71 -1.093,0.968 -0.254,0.154 -0.557,0.203 -0.856,0.183 -0.572,0.029 -1.163,-0.149 -1.624,-0.245 -0.236,0.162 -0.253,0.304 -0.253,0.536 0,0.083 0.013,0.179 0.046,0.282 l 0.066,0.482 c 0,0.162 0,0.253 -0.013,0.395 0.1,0.037 0.183,0.063 0.236,0.063 0.1,-0.021 0.179,-0.055 0.295,-0.166 l 0.229,-0.329 0.088,0.013 0.245,-0.013 c 0.095,0.013 0.195,0.013 0.282,0.013 0.253,-0.013 0.387,0.129 0.478,0.241 0.877,-0.243 1.965,-0.405 2.38,-1.128"
     inkscape:connector-curvature="0"
     style="fill:#ffffff" /><path
     id="path219"
     d="m 209.827,164.382 c 0.116,-0.569 0.698,-0.881 1.271,-0.894 0.257,0 0.49,0.066 0.706,0.175 l 0.166,-0.175 0.137,-0.946 0.059,-0.029 c 0.993,-0.814 0.997,-0.241 2.268,-0.407 -0.066,-0.208 -0.104,-0.407 -0.104,-0.623 -0.074,-1.952 1.255,-2.488 1.313,-4.337 -0.295,-0.282 -0.523,-0.453 -0.813,-0.453 -0.042,0.021 -0.1,0.021 -0.142,0.021 -0.254,0.541 -0.54,1.068 -0.511,1.608 v 0.091 l 0.033,0.138 -0.129,0.045 c -1.604,0.674 -0.328,0.641 -1.18,1.97 l -0.075,0.107 -0.12,-0.045 c -0.195,-0.055 -0.37,-0.063 -0.511,-0.063 -0.648,0 -0.993,0.436 -1.334,0.885 l -0.319,0.424 c -0.499,0.619 -1.351,0.893 -1.413,1.209 -0.19,1.3 -0.747,1.229 -1.786,2.214 -0.315,0.295 -0.623,0.411 -0.889,0.415 -0.395,0 -0.632,-0.22 -0.719,-0.299 -0.029,-0.046 -0.041,-0.1 -0.054,-0.162 0.013,-0.212 0.146,-0.328 0.166,-0.357 0.299,-0.44 0.66,-0.931 0.615,-1.375 0,-0.1 -0.018,-0.236 -0.067,-0.345 l -0.05,-0.107 0.066,-0.079 c 0.91,-1.026 1.579,-2.131 1.998,-3.382 0.407,-0.852 1.288,-1.483 2.235,-1.562 l 0.1,-0.013 0.063,0.091 c 0.129,0.138 0.282,0.213 0.42,0.274 l 0.236,0.125 c 0.162,0.058 0.258,0.149 0.332,0.232 0.312,-0.158 0.35,-0.208 0.35,-0.531 v -0.05 -0.225 c -0.424,-0.354 -0.599,-0.769 -0.619,-1.167 -0.042,-0.881 0.594,-1.72 0.96,-2.443 -0.457,-0.245 -0.765,-0.374 -0.973,-0.374 -0.324,0 -0.515,0.25 -0.636,1.006 l -0.07,0.636 c -0.063,0.465 -0.166,1.188 -0.785,1.441 l -0.037,0.008 h -0.029 c -0.066,-0.008 -0.129,-0.012 -0.191,-0.012 -1.724,-0.029 -2.077,1.96 -3.51,2.816 l 0.05,1.188 -0.037,0.054 c -0.32,0.416 -0.814,0.657 -1.222,0.964 -0.146,0.079 -0.274,0.233 -0.444,0.407 0.207,0.229 0.349,0.461 0.365,0.735 0.009,0.282 -0.107,0.532 -0.345,0.839 -0.573,0.665 -1.366,0.831 -1.313,1.4 0.008,0.041 0.017,0.096 0.017,0.158 l 0.49,0.312 c 0.901,0.133 2.022,1.18 3.095,1.275 1.242,-0.711 2.459,-1.446 2.916,-2.808"
     inkscape:connector-curvature="0"
     style="fill:#ffffff" /><path
     id="path221"
     d="m 259.498,116.552 c -0.175,-0.046 0.116,1.237 -0.063,1.196 0.419,0.789 0.814,1.762 2.022,1.628 -0.166,-0.905 -1.104,-1.495 -1.604,-2.393 l -0.355,-0.431 z"
     inkscape:connector-curvature="0"
     style="fill:#ffffff" /><path
     id="path223"
     d="m 169.346,190.278 0.282,-0.058 c 0.366,-0.217 0.648,-0.403 0.599,-0.864 -0.619,-0.437 -0.989,-0.98 -1.607,-1.242 -0.387,-0.162 -0.628,-0.1 -0.985,0.066 0.449,1.06 0.254,1.512 -0.481,2.352 l -0.424,0.481 c -0.682,0.723 -0.844,1.139 -0.698,2.164 1.525,-0.511 2.293,-1.051 3.303,-2.223 -0.189,-0.322 -0.409,-0.517 0.011,-0.676"
     inkscape:connector-curvature="0"
     style="fill:#ffffff" /><path
     id="path225"
     d="m 173.836,197.481 c -0.295,-0.008 -0.581,0.175 -0.852,0.361 l -0.153,0.075 -0.046,0.05 -0.017,0.063 -0.05,0.39 -0.025,0.175 0.15,-0.008 0.024,-0.025 c 0.249,0 0.627,0.278 1.022,0.291 h 0.021 c 0.266,0 0.511,-0.166 0.686,-0.577 l 0.033,-0.063 -0.033,-0.055 c -0.207,-0.477 -0.477,-0.677 -0.76,-0.677"
     inkscape:connector-curvature="0"
     style="fill:#ffffff" /><path
     id="path227"
     d="m 170.264,196.796 c -0.931,-0.22 -1.882,-0.249 -2.813,-0.278 l 0.606,2.077 0.956,-0.037 c 0.017,-0.499 -0.063,-0.719 0.623,-0.761 0.727,0.009 1.113,0.104 1.632,-0.465 l -0.365,-0.437 -0.639,-0.099 z"
     inkscape:connector-curvature="0"
     style="fill:#ffffff" /><path
     id="path229"
     d="m 164.855,193.028 c -0.993,0.133 -1.03,0.652 -0.96,1.508 0.041,0.308 0.1,0.623 0.083,0.931 0.017,0.32 0.142,0.312 0.033,0.532 0,0 0.075,0.336 0.258,0.469 0.174,0.154 0.976,-0.478 0.976,-0.478 0.495,-0.49 0.387,-1.08 -0.024,-1.856 l -0.366,-1.106 z"
     inkscape:connector-curvature="0"
     style="fill:#ffffff" /><path
     id="path231"
     d="m 172.723,192.11 c -2.8,-0.848 -1.766,2.359 -2.484,3.165 l 0.25,0.25 c 0.938,-0.42 1.615,-1.172 1.856,-1.948 0.901,-0.856 2.031,-0.582 2.945,-1.804 -1.067,-0.934 -1.84,-0.573 -2.567,0.337"
     inkscape:connector-curvature="0"
     style="fill:#ffffff" /><path
     id="path233"
     d="m 262.912,62.947 c -1.113,0.943 -2.509,2.796 -4.037,3.082 -0.836,0.146 -3.157,-0.087 -3.312,-0.54 -0.137,-0.424 2.688,-2.438 3.312,-2.758 0.697,-0.378 1.309,-0.411 2.247,-0.744 0.49,-0.187 1.699,-0.896 1.994,-0.859 0.552,0.079 0.83,0.424 0.644,1.071 -0.1,0.366 -0.445,0.4 -0.848,0.748"
     inkscape:connector-curvature="0"
     style="fill:#ffffff" /></g>
</svg>