<?xml version="1.0" encoding="UTF-8" standalone="no"?>
<!-- Created with Inkscape (http://www.inkscape.org/) -->
<svg
   xmlns:dc="http://purl.org/dc/elements/1.1/"
   xmlns:cc="http://web.resource.org/cc/"
   xmlns:rdf="http://www.w3.org/1999/02/22-rdf-syntax-ns#"
   xmlns:svg="http://www.w3.org/2000/svg"
   xmlns="http://www.w3.org/2000/svg"
   xmlns:sodipodi="http://sodipodi.sourceforge.net/DTD/sodipodi-0.dtd"
   xmlns:inkscape="http://www.inkscape.org/namespaces/inkscape"
   width="765"
   height="990"
   id="svg2"
   sodipodi:version="0.32"
   inkscape:version="0.44"
   version="1.0"
   sodipodi:docbase="C:\new docs"
   sodipodi:docname="joyous.svg">
  <defs
     id="defs4" />
  <sodipodi:namedview
     id="base"
     pagecolor="#ffffff"
     bordercolor="#666666"
     borderopacity="1.0"
     gridtolerance="10000"
     guidetolerance="10"
     objecttolerance="10"
     inkscape:pageopacity="0.0"
     inkscape:pageshadow="2"
     inkscape:zoom="0.7"
     inkscape:cx="270.9154"
     inkscape:cy="730.2577"
     inkscape:document-units="px"
     inkscape:current-layer="layer1"
     width="765px"
     height="990px"
     showgrid="true"
     inkscape:window-width="853"
     inkscape:window-height="697"
     inkscape:window-x="89"
     inkscape:window-y="221" />
  <metadata
     id="metadata7">
    <rdf:RDF>
      <cc:Work
         rdf:about="">
        <dc:format>image/svg+xml</dc:format>
        <dc:type
           rdf:resource="http://purl.org/dc/dcmitype/StillImage" />
      </cc:Work>
    </rdf:RDF>
  </metadata>
  <g
     inkscape:label="Layer 1"
     inkscape:groupmode="layer"
     id="layer1">
    <g
       id="g7559"
       transform="translate(-3.550402,-300.6999)">
      <path
         id="path6535"
         d="M 201.23546,383.96482 C 197.17256,382.1202 193.91914,377.88312 193.91914,374.43642 C 193.91914,372.56938 198.82201,364.9082 200.01684,364.9082 C 200.4744,364.9082 201.3047,364.05629 201.86194,363.01507 C 202.63654,361.56773 202.40728,360.5272 200.88835,358.59619 C 197.40977,354.17389 197.32749,350.60193 200.61933,346.91771 C 205.76871,341.15456 218.88547,340.86656 223.66914,346.41161 C 227.13438,350.42839 226.67927,355.02874 222.41914,359.047 C 218.3719,362.86446 218.11374,364.42199 221.01617,367.51148 C 222.83083,369.4431 223.82229,369.67048 228.37941,369.20015 C 234.52088,368.56629 235.71759,369.62342 232.90552,373.19839 C 231.81301,374.58729 230.91914,376.58099 230.91914,377.62884 C 230.91914,378.67669 229.60988,380.78837 228.00967,382.32146 C 225.73577,384.5 224.71304,384.89224 223.32787,384.11706 C 222.09776,383.42865 220.34893,383.55092 217.61161,384.5167 C 212.19661,386.42723 206.21508,386.22565 201.23546,383.96482 z M 215.53119,377.47681 C 216.12505,375.92922 212.44716,370.3248 210.29596,369.49931 C 206.74296,368.13589 204.30426,375.86824 207.66914,377.8281 C 210.24872,379.33057 214.89958,379.12276 215.53119,377.47681 z M 214.87927,354.45624 C 217.52695,351.26598 213.62041,346.25138 210.50296,348.83863 C 208.6218,350.39986 208.44926,353.03832 210.11914,354.7082 C 211.72243,356.31149 213.41385,356.22196 214.87927,354.45624 z "
         style="fill:#e2f2b1;fill-opacity:1" />
      <path
         id="path7465"
         d="M 406.27089,399.06141 C 405.72089,398.87794 404.05675,398.46076 402.5728,398.13434 C 401.08886,397.80792 397.00369,395.34033 393.49467,392.6508 C 389.98564,389.96128 384.67478,386.52845 381.69275,385.0223 C 369.38658,378.80674 364.159,373.48109 360.37209,363.30169 C 359.19227,360.13029 357.13935,357.34986 354.19797,354.93962 C 349.46408,351.06055 349.15097,348.9865 353.55186,350.65971 C 358.56802,352.56686 362.69556,356.57496 366.69446,363.42202 C 371.65678,371.91869 376.8798,376.70165 384.17757,379.43209 C 387.29516,380.59853 390.22064,381.55289 390.67864,381.55289 C 391.13663,381.55289 394.59762,383.80289 398.36971,386.55289 C 406.30982,392.34154 410.37201,392.93874 418.39978,389.49764 C 424.20479,387.00933 427.48862,387.58007 428.40641,391.23684 C 429.20474,394.41762 426.61287,396.94701 420.94087,398.52241 C 417.50557,399.47655 408.50658,399.8072 406.27089,399.06141 z M 408.77089,380.83136 C 403.03466,378.83816 399.55745,376.48749 393.02089,370.18401 C 387.70807,365.06063 386.79332,362.93047 388.97089,360.75289 C 391.27357,358.45021 393.56027,359.59219 397.74481,365.13457 C 402.45084,371.36767 408.44746,375.59489 417.02089,378.72295 C 420.18339,379.87681 422.77089,381.21058 422.77089,381.68688 C 422.77089,383.08568 413.65553,382.52865 408.77089,380.83136 z M 400.34232,360.98146 C 396.96366,357.6028 399.91049,353.39172 406.96814,351.51303 C 414.92602,349.3947 424.56059,343.48623 433.00077,335.54834 C 437.54933,331.27046 441.04589,327.54651 440.77089,327.27288 C 440.49589,326.99925 436.22089,329.67127 431.27089,333.21069 C 418.42846,342.39347 406.19894,348.23324 395.05428,350.50466 C 385.47515,352.457 382.47505,352.31258 379.52089,349.75687 C 377.40902,347.92986 377.23835,344.23975 379.19077,342.61939 C 379.9717,341.97127 385.0342,341.0064 390.44077,340.47524 C 406.31468,338.91571 421.35392,333.60179 438.41677,323.52354 C 443.04528,320.78968 447.04344,318.55289 447.30157,318.55289 C 448.53371,318.55289 447.51334,322.55621 445.13306,327.06085 C 438.29132,340.00874 426.21804,351.70234 412.71201,358.46232 C 403.59956,363.02324 402.58975,363.2289 400.34232,360.98146 z M 363.87696,343.67957 C 359.54484,338.50534 355.07467,335.97868 351.77783,336.84082 C 349.40483,337.46138 349.15515,336.3088 351.28046,334.54495 C 353.95322,332.32675 360.37686,334.0151 366.31114,338.49553 C 370.21809,341.44531 371.77089,343.28906 371.77089,344.9783 C 371.77089,346.89115 370.14909,348.55289 368.28222,348.55289 C 368.10342,348.55289 366.12105,346.3599 363.87696,343.67957 z M 322.27089,343.56545 C 333.27293,340.97063 344.30839,339.99553 345.25934,341.53419 C 346.67025,343.8171 344.18084,344.34032 329.27089,344.89461 L 314.27089,345.45225 L 322.27089,343.56545 z M 351.15089,344.10078 C 350.45428,342.28542 351.4661,340.55289 353.22292,340.55289 C 354.73888,340.55289 356.06293,343.27134 355.21512,344.64313 C 354.34105,346.0574 351.77006,345.71431 351.15089,344.10078 z M 369.91741,337.06698 C 366.54588,333.22703 363.19225,323.73154 364.68157,322.24221 C 365.24043,321.68335 366.67041,323.034 368.32969,325.68798 C 369.83062,328.08868 372.55865,331.73033 374.39197,333.78053 C 377.85481,337.65302 378.01561,340.55289 374.76749,340.55289 C 373.78331,340.55289 371.60077,338.98423 369.91741,337.06698 z "
         style="fill:#e2f2b4;fill-opacity:1" />
      <path
         id="path7512"
         d="M 140.83991,424.83556 C 134.74412,421.99751 131.58071,417.61782 131.57517,412.00864 C 131.57062,407.4037 133.55844,402.44742 136.43954,399.88022 C 139.64988,397.01966 140.00754,398.55929 137.12085,402.81307 C 135.29475,405.50398 134.57143,407.88574 134.57143,411.2078 C 134.57143,416.83231 136.35323,419.59567 141.88751,422.55415 C 145.36146,424.41123 147.59862,424.78128 155.07142,424.73491 C 176.71338,424.6006 193.96781,413.11857 227.11869,376.79076 L 242.63201,359.79076 L 238.35172,359.28429 C 234.60538,358.841 234.38329,358.68676 236.57142,358.04794 C 237.94642,357.64651 240.38336,357.31193 241.98684,357.30441 C 244.33536,357.29342 247.05768,355.18975 255.98684,346.48596 C 272.5759,330.31563 282.62695,323.59923 295.99205,319.75334 C 307.78608,316.35953 321.5017,319.15875 322.39098,325.14109 C 322.79849,327.8825 322.16831,327.84317 318.25471,324.88294 C 308.44,317.45912 293.65198,320.09704 278.86968,331.90852 C 272.23347,337.21104 253.57142,355.36793 253.57142,356.522 C 253.57142,356.94482 255.62298,357.29076 258.13045,357.29076 C 260.91515,357.29076 262.44893,357.67995 262.07143,358.29076 C 261.73151,358.84076 259.08746,359.29076 256.19574,359.29076 L 250.9381,359.29076 L 234.64084,377.33606 C 212.40922,401.95223 200.30273,412.4659 185.81831,419.73512 C 170.40246,427.4718 151.18334,429.6512 140.83991,424.83556 z M 239.57142,389.66775 C 239.57142,384.57784 256.96569,363.52994 266.25939,357.37406 C 268.84469,355.66163 272.23863,354.29076 273.89291,354.29076 L 276.87151,354.29076 L 272.97147,357.16997 C 270.82645,358.75353 267.27143,361.97488 265.07143,364.32852 L 261.07143,368.60786 L 267.57143,363.42608 C 279.06643,354.26231 288.07143,351.55818 288.07143,357.27009 C 288.07143,359.63245 287.7873,359.7504 282.04918,359.77009 C 276.49119,359.78917 275.52013,360.15239 269.4528,364.48167 C 265.83703,367.06166 257.91143,374.37416 251.84035,380.73167 C 245.76927,387.08917 240.52515,392.29076 240.18673,392.29076 C 239.84831,392.29076 239.57142,391.11041 239.57142,389.66775 z M 271.14286,390.71933 C 268.94931,388.52579 269.18446,382.96961 271.67767,378.08252 C 276.85055,367.94284 297.15411,353.41236 306.28625,353.3145 C 308.99875,353.28543 310.61277,356.05641 309.53837,358.8978 C 307.7315,363.6763 295.77363,370.29076 288.94175,370.29076 C 285.16016,370.29076 274.19525,383.62186 274.75211,387.54249 C 275.01471,389.39139 275.65571,389.76381 278.36066,389.63905 C 282.20809,389.46158 291.56099,384.09316 295.5184,379.79076 C 310.3396,363.67754 319.46071,356.64999 328.79235,354.15416 C 332.54172,353.15136 333.71502,353.16504 334.99401,354.22651 C 337.48915,356.29729 336.8814,358.24395 332.31369,362.81165 C 328.12813,366.99722 320.48946,370.29076 314.96748,370.29076 C 310.87858,370.29076 299.51912,385.10609 300.88295,388.6602 C 302.34581,392.47234 311.63777,388.44378 323.32633,378.9298 C 327.8124,375.27833 331.72776,372.29076 332.02713,372.29076 C 335.31648,372.29076 319.23821,385.77757 311.12509,389.82385 C 302.79536,393.97816 296.0268,392.44543 295.38382,386.25925 L 295.07143,383.25376 L 290.07143,386.60609 C 281.67666,392.2345 274.26796,393.84444 271.14286,390.71933 z M 296.50311,366.32562 C 302.92888,363.04743 310.12667,355.29076 306.74287,355.29076 C 305.46923,355.29076 297.52901,360.74259 293.06783,364.68016 C 288.44287,368.76229 290.13661,369.57356 296.50311,366.32562 z M 324.0893,365.65122 C 326.27947,364.19948 329.30893,361.86529 330.82143,360.46413 C 333.50201,357.98088 334.46921,355.29076 332.68144,355.29076 C 331.86953,355.29076 323.73442,361.16581 317.57143,366.20298 L 315.07143,368.24629 L 317.5893,368.26852 C 318.97412,368.28075 321.89912,367.10297 324.0893,365.65122 z "
         style="fill:#8d9e38;fill-opacity:1" />
      <path
         id="path7557"
         d="M 18.321427,398.33752 C 14.790567,398.04529 14.571427,397.83003 14.571427,394.65394 C 14.571427,391.71744 14.927457,391.23976 17.321427,390.9643 L 20.071427,390.64788 L 20.571427,373.64788 L 21.071427,356.64788 L 26.321431,356.34562 L 31.571431,356.04336 L 31.571431,359.42895 C 31.571431,364.31911 32.468361,364.56081 36.232521,360.68497 C 41.519271,355.24139 50.202401,353.69512 58.682631,356.68711 C 61.509521,357.6845 63.167221,357.86051 63.391691,357.18711 C 63.582211,356.61554 66.288101,356.15508 69.404761,356.16389 L 75.071431,356.1799 L 77.909621,365.15937 C 80.694981,373.97173 82.193591,376.57202 82.982361,373.96126 C 83.200601,373.2389 84.406351,368.93538 85.661801,364.39788 L 87.944451,356.14788 L 93.257941,356.14788 C 97.438671,356.14788 98.571431,356.48543 98.571431,357.73121 C 98.571431,358.60554 99.131171,359.08422 99.821431,358.80018 C 112.26185,353.681 120.22939,354.11489 126.81371,360.27011 L 131.07143,364.25035 L 131.37893,360.19912 L 131.68643,356.14788 L 137.12893,356.14788 L 142.57143,356.14788 L 142.57143,366.66932 C 142.57143,376.87503 142.64522,377.22438 145.03047,378.31117 C 146.99965,379.20839 147.99567,379.09993 150.03047,377.76668 C 152.47071,376.16777 152.57143,375.70631 152.57143,366.12483 L 152.57143,356.14788 L 158.00807,356.14788 C 163.38568,356.14788 163.44812,356.18243 163.75807,359.33019 L 164.07143,362.5125 L 167.48834,359.38129 C 173.03856,354.29515 184.38238,353.78906 190.82143,358.34031 C 192.33393,359.40938 193.57143,361.15343 193.57143,362.21597 C 193.57143,363.86144 192.84739,364.14788 188.68806,364.14788 C 184.6457,364.14788 183.71462,363.80344 183.28168,362.14788 C 182.88311,360.62375 181.91767,360.14788 179.22407,360.14788 C 175.30112,360.14788 174.14431,361.2268 175.04034,364.04991 C 175.48768,365.45937 177.33046,366.24975 182.35488,367.18719 C 186.04898,367.87642 190.19643,369.31144 191.57143,370.37613 C 198.20199,375.51028 193.81387,384.26727 183.74708,385.99047 C 177.98049,386.97758 171.56387,386.00904 167.85661,383.59193 C 165.01592,381.73981 163.57143,381.75867 163.57143,383.64788 C 163.57143,384.7994 162.29365,385.14788 158.07143,385.14788 C 153.03893,385.14788 152.57013,384.95663 152.55612,382.89788 C 152.54758,381.64301 152.21587,381.1158 151.80612,381.70584 C 150.0558,384.22634 145.83034,386.14543 142.09892,386.11461 C 137.49145,386.07655 134.13974,383.7644 132.50819,379.49853 L 131.41791,376.64788 L 129.05659,379.38166 C 125.15974,383.89317 119.4122,386.31361 112.67266,386.28138 C 102.89734,386.23463 97.151441,382.12626 95.152181,373.7541 C 94.503841,371.03907 94.382071,370.9773 93.180861,372.7541 C 92.476701,373.79568 90.219661,379.02741 88.165231,384.38018 C 83.715351,395.9742 81.426341,398.14788 73.667061,398.14788 L 68.571431,398.14788 L 68.571431,394.71124 C 68.571431,391.56924 68.848531,391.24773 71.803381,390.96124 C 76.911281,390.46599 77.602891,386.86886 74.151551,378.74817 C 70.531071,370.22951 69.019441,368.94622 68.138281,373.64323 C 67.275201,378.24383 62.428001,383.71008 57.880711,385.21082 C 54.570561,386.30327 48.176121,386.59331 44.571431,385.8145 C 41.084531,385.06114 35.547561,381.64805 34.996711,379.91246 C 33.747661,375.97704 32.065701,378.93758 31.773261,385.58627 C 31.607671,389.35119 30.826761,393.35476 30.016911,394.59075 C 28.283281,397.2366 23.507091,398.7667 18.321427,398.33752 z M 183,380.57645 C 184.78301,378.79345 185.04752,376.56015 183.5829,375.65497 C 183.03921,375.31895 180.45171,374.78668 177.8329,374.47216 C 175.21409,374.15763 170.93393,372.82342 168.32143,371.50724 L 163.57143,369.11419 L 163.57143,373.63103 L 163.57143,378.14788 L 169.03625,378.14788 C 173.47761,378.14788 174.70152,378.52244 175.57143,380.14788 C 176.85813,382.55211 180.7971,382.77936 183,380.57645 z M 55.171221,377.63593 C 56.378821,375.7929 56.694791,373.64903 56.357791,369.58516 C 55.757511,362.34662 53.957901,360.44935 48.891851,361.71407 C 45.581781,362.54042 45.053101,363.10821 44.297861,366.64788 C 43.288911,371.37665 43.913471,376.49559 45.753631,378.57947 C 47.951511,381.06845 53.271371,380.53546 55.171221,377.63593 z M 118.34071,377.14788 C 120.23633,373.54477 119.40667,364.23179 117.0356,362.49802 C 114.65161,360.7548 111.45789,360.7792 109.02357,362.55922 C 106.47743,364.421 105.94923,374.81455 108.23492,378.07783 C 110.42157,381.19972 116.50345,380.64005 118.34071,377.14788 z M 20.571427,346.14788 L 20.571427,341.14788 L 26.071431,341.14788 L 31.571431,341.14788 L 31.571431,346.14788 L 31.571431,351.14788 L 26.071431,351.14788 L 20.571427,351.14788 L 20.571427,346.14788 z "
         style="fill:#98e1ea;fill-opacity:1" />
    </g>
    <g
       id="g2807"
       inkscape:export-xdpi="300"
       inkscape:export-ydpi="300"
       inkscape:export-filename="C:\new docs\joyous.png">
      <path
         style="fill:#e2f2b1;fill-opacity:1"
         d="M 290.1127,288.51313 C 284.01835,285.7462 279.13822,279.39058 279.13822,274.22053 C 279.13822,271.41997 286.49253,259.9282 288.28477,259.9282 C 288.97111,259.9282 290.21656,258.65033 291.05242,257.0885 C 292.21432,254.91749 291.87043,253.3567 289.59204,250.46018 C 284.37417,243.82673 284.25074,238.46879 289.1885,232.94247 C 296.91258,224.29774 316.58772,223.86574 323.76322,232.18331 C 328.96108,238.20848 328.27842,245.10901 321.88822,251.1364 C 315.81736,256.86259 315.43012,259.19889 319.78376,263.83312 C 322.50575,266.73055 323.99295,267.07162 330.82862,266.36613 C 340.04083,265.41533 341.83589,267.00103 337.61779,272.36349 C 335.97902,274.44683 334.63822,277.43738 334.63822,279.00916 C 334.63822,280.58094 332.67433,283.74845 330.27402,286.04809 C 326.86316,289.3159 325.32907,289.90426 323.25131,288.74149 C 321.40615,287.70888 318.7829,287.89228 314.67693,289.34095 C 306.55442,292.20675 297.58213,291.90437 290.1127,288.51313 z M 311.5563,278.78112 C 312.44708,276.45973 306.93025,268.0531 303.70345,266.81486 C 298.37395,264.76974 294.7159,276.36826 299.76322,279.30805 C 303.63259,281.56176 310.60888,281.25004 311.5563,278.78112 z M 310.57842,244.25026 C 314.54994,239.46487 308.69012,231.94297 304.01395,235.82385 C 301.19221,238.16569 300.9334,242.12338 303.43822,244.6282 C 305.84316,247.03313 308.38029,246.89884 310.57842,244.25026 z "
         id="path7567" />
      <path
         style="fill:#e2f2b4;fill-opacity:1"
         d="M 597.66584,311.15802 C 596.84084,310.88281 594.34464,310.25704 592.11871,309.76741 C 589.8928,309.27778 583.76504,305.57639 578.50151,301.5421 C 573.23797,297.50782 565.27168,292.35858 560.79863,290.09935 C 542.33938,280.77601 534.49801,272.78753 528.81764,257.51844 C 527.04791,252.76134 523.96853,248.59069 519.55647,244.97533 C 512.45563,239.15672 511.98596,236.04565 518.5873,238.55547 C 526.11154,241.41619 532.30285,247.42834 538.3012,257.69893 C 545.74468,270.44394 553.57921,277.61837 564.52586,281.71404 C 569.20225,283.46369 573.59047,284.89523 574.27747,284.89523 C 574.96446,284.89523 580.15594,288.27023 585.81408,292.39523 C 597.72424,301.07821 603.81752,301.97401 615.85918,296.81236 C 624.56669,293.07989 629.49244,293.936 630.86912,299.42116 C 632.06662,304.19233 628.17881,307.98641 619.67082,310.34952 C 614.51786,311.78072 601.01938,312.2767 597.66584,311.15802 z M 601.41584,283.81294 C 592.8115,280.82314 587.59569,277.29713 577.79084,267.84191 C 569.82162,260.15684 568.44949,256.96161 571.71584,253.69523 C 575.16986,250.24122 578.59992,251.95419 584.87672,260.26775 C 591.93577,269.6174 600.9307,275.95824 613.79084,280.65033 C 618.53459,282.38111 622.41584,284.38177 622.41584,285.09622 C 622.41584,287.19442 608.7428,286.35888 601.41584,283.81294 z M 588.77299,254.03809 C 583.705,248.9701 588.12524,242.65348 598.71172,239.83545 C 610.64854,236.65795 625.10039,227.79524 637.76067,215.88841 C 644.5835,209.47159 649.82835,203.88567 649.41584,203.47522 C 649.00334,203.06478 642.59084,207.0728 635.16584,212.38194 C 615.9022,226.1561 597.55792,234.91576 580.84093,238.32289 C 566.47223,241.2514 561.97208,241.03477 557.54084,237.2012 C 554.37304,234.46069 554.11703,228.92553 557.04566,226.49499 C 558.21706,225.52281 565.81081,224.0755 573.92066,223.27876 C 597.73153,220.93946 620.29039,212.96858 645.88466,197.85121 C 652.82743,193.75042 658.82467,190.39523 659.21186,190.39523 C 661.06007,190.39523 659.52952,196.40022 655.9591,203.15718 C 645.69649,222.57901 627.58657,240.11941 607.32753,250.25938 C 593.65885,257.10076 592.14414,257.40925 588.77299,254.03809 z M 534.07495,228.08526 C 527.57677,220.32391 520.87152,216.53392 515.92625,217.82713 C 512.36676,218.75797 511.99223,217.0291 515.1802,214.38332 C 519.18934,211.05603 528.8248,213.58855 537.72622,220.30919 C 543.58664,224.73387 545.91584,227.49949 545.91584,230.03335 C 545.91584,232.90262 543.48315,235.39523 540.68284,235.39523 C 540.41464,235.39523 537.44109,232.10575 534.07495,228.08526 z M 471.66584,227.91408 C 488.1689,224.02185 504.72209,222.55919 506.14852,224.86719 C 508.26488,228.29155 504.53077,229.07638 482.16584,229.90782 L 459.66584,230.74427 L 471.66584,227.91408 z M 514.98585,228.71707 C 513.94093,225.99403 515.45866,223.39523 518.09389,223.39523 C 520.36783,223.39523 522.3539,227.47291 521.08219,229.53059 C 519.77108,231.652 515.9146,231.13737 514.98585,228.71707 z M 543.13563,218.16637 C 538.07833,212.40645 533.04788,198.16321 535.28187,195.92922 C 536.12015,195.09093 538.26513,197.1169 540.75405,201.09787 C 543.00544,204.69892 547.09749,210.16139 549.84747,213.2367 C 555.04172,219.04543 555.28292,223.39523 550.41075,223.39523 C 548.93447,223.39523 545.66066,221.04225 543.13563,218.16637 z "
         id="path7569" />
      <path
         inkscape:export-ydpi="300"
         inkscape:export-xdpi="300"
         inkscape:export-filename="C:\new docs\joyous.png"
         style="fill:blue;fill-opacity:1"
         d="M 199.51938,349.81924 C 190.37569,345.56216 185.63058,338.99263 185.62227,330.57886 C 185.61544,323.67145 188.59717,316.23703 192.91882,312.38623 C 197.73433,308.09539 198.27082,310.40483 193.94078,316.7855 C 191.20163,320.82187 190.11665,324.39451 190.11665,329.3776 C 190.11665,337.81437 192.78936,341.9594 201.09077,346.39712 C 206.3017,349.18274 209.65744,349.73782 220.86664,349.66827 C 253.32958,349.4668 279.21122,332.24375 328.93755,277.75204 L 352.20753,252.25204 L 345.78709,251.49234 C 340.16758,250.8274 339.83444,250.59604 343.11664,249.63781 C 345.17914,249.03566 348.83455,248.5338 351.23977,248.52252 C 354.76255,248.50603 358.84603,245.35053 372.23977,232.29484 C 397.12336,208.03935 412.19994,197.96474 432.24759,192.19591 C 449.93863,187.1052 470.51206,191.30403 471.84598,200.27754 C 472.45725,204.38965 471.51198,204.33065 465.64157,199.89031 C 450.91951,188.75458 428.73748,192.71146 406.56403,210.42868 C 396.60971,218.38246 368.61664,245.6178 368.61664,247.3489 C 368.61664,247.98313 371.69398,248.50204 375.45518,248.50204 C 379.63223,248.50204 381.93291,249.08583 381.36666,250.00204 C 380.85678,250.82704 376.8907,251.50204 372.55312,251.50204 L 364.66666,251.50204 L 340.22077,278.56999 C 306.87334,315.49424 288.7136,331.26475 266.98697,342.16858 C 243.8632,353.7736 215.03452,357.0427 199.51938,349.81924 z M 347.61664,297.06753 C 347.61664,289.43266 373.70804,257.86081 387.6486,248.62699 C 391.52655,246.05835 396.61746,244.00204 399.09887,244.00204 L 403.56678,244.00204 L 397.71672,248.32085 C 394.49919,250.6962 389.16665,255.52822 385.86666,259.05868 L 379.86666,265.47769 L 389.61666,257.70502 C 406.85916,243.95937 420.36666,239.90317 420.36666,248.47103 C 420.36666,252.01458 419.94046,252.1915 411.33328,252.22103 C 402.9963,252.24966 401.5397,252.79449 392.43871,259.28841 C 387.01506,263.15839 375.12665,274.12714 366.02004,283.66341 C 356.91341,293.19966 349.04724,301.00204 348.5396,301.00204 C 348.03197,301.00204 347.61664,299.23152 347.61664,297.06753 z M 394.9738,298.6449 C 391.68348,295.35458 392.0362,287.02031 395.77601,279.68968 C 403.53533,264.48016 433.99068,242.68444 447.68888,242.53765 C 451.75763,242.49405 454.17867,246.65052 452.56706,250.9126 C 449.85676,258.08035 431.91996,268.00204 421.67214,268.00204 C 415.99975,268.00204 399.55238,287.99869 400.38768,293.87964 C 400.78157,296.65299 401.74307,297.21161 405.8005,297.02448 C 411.57165,296.75827 425.601,288.70564 431.53711,282.25204 C 453.76891,258.08221 467.45058,247.54089 481.44804,243.79714 C 487.07209,242.29294 488.83204,242.31346 490.75052,243.90567 C 494.49323,247.01183 493.58161,249.93182 486.73005,256.78337 C 480.45171,263.06173 468.9937,268.00204 460.71073,268.00204 C 454.57738,268.00204 437.53819,290.22503 439.58394,295.5562 C 441.77822,301.27441 455.71616,295.23157 473.249,280.9606 C 479.97811,275.48339 485.85115,271.00204 486.30021,271.00204 C 491.23423,271.00204 467.11682,291.23226 454.94714,297.30167 C 442.45255,303.53314 432.29971,301.23404 431.33524,291.95478 L 430.86666,287.44654 L 423.36666,292.47503 C 410.7745,300.91765 399.66145,303.33256 394.9738,298.6449 z M 433.01417,262.05433 C 442.65283,257.13705 453.44951,245.50204 448.37381,245.50204 C 446.46335,245.50204 434.55303,253.67979 427.86126,259.58614 C 420.92382,265.70934 423.46443,266.92624 433.01417,262.05433 z M 474.39346,261.04273 C 477.67872,258.86512 482.2229,255.36384 484.49166,253.2621 C 488.51252,249.53722 489.96332,245.50204 487.28167,245.50204 C 486.06381,245.50204 473.86114,254.31462 464.61666,261.87037 L 460.86666,264.93534 L 464.64346,264.96868 C 466.72069,264.98703 471.10819,263.22036 474.39346,261.04273 z "
         id="path7571" />
      <path
         style="fill:#98e1ea;fill-opacity:1"
         d="M 15.741651,310.07218 C 10.445361,309.63384 10.116651,309.31095 10.116651,304.54681 C 10.116651,300.14206 10.650696,299.42554 14.241651,299.01235 L 18.36665,298.53772 L 19.11665,273.03772 L 19.86665,247.53772 L 27.741657,247.08433 L 35.616657,246.63094 L 35.616657,251.70932 C 35.616657,259.04457 36.962052,259.40711 42.608292,253.59336 C 50.538417,245.42799 63.563112,243.10858 76.283457,247.59657 C 80.523792,249.09265 83.010341,249.35666 83.347047,248.34657 C 83.632827,247.48921 87.691661,246.79852 92.366651,246.81173 L 100.86666,246.83575 L 105.12394,260.30496 C 109.30198,273.52349 111.5499,277.42393 112.73305,273.50779 C 113.06041,272.42425 114.86904,265.96897 116.75221,259.16272 L 120.17619,246.78772 L 128.14642,246.78772 C 134.41752,246.78772 136.11666,247.29405 136.11666,249.16271 C 136.11666,250.47421 136.95627,251.19223 137.99166,250.76617 C 156.65229,243.0874 168.60359,243.73824 178.48008,252.97106 L 184.86665,258.94143 L 185.3279,252.86458 L 185.78915,246.78772 L 193.9529,246.78772 L 202.11665,246.78772 L 202.11665,262.56988 C 202.11665,277.87844 202.22734,278.40247 205.80522,280.03265 C 208.75899,281.37849 210.25301,281.21579 213.30522,279.21592 C 216.96558,276.81756 217.11665,276.12536 217.11665,261.75314 L 217.11665,246.78772 L 225.27162,246.78772 C 233.33803,246.78772 233.43169,246.83955 233.89662,251.56119 L 234.36665,256.33465 L 239.49202,251.63783 C 247.81735,244.00862 264.83308,243.24949 274.49165,250.07636 C 276.7604,251.67997 278.61665,254.29605 278.61665,255.88986 C 278.61665,258.35806 277.5306,258.78772 271.2916,258.78772 C 265.22806,258.78772 263.83144,258.27106 263.18203,255.78772 C 262.58417,253.50152 261.13601,252.78772 257.09562,252.78772 C 251.21119,252.78772 249.47597,254.4061 250.82002,258.64076 C 251.49103,260.75496 254.2552,261.94052 261.79183,263.34668 C 267.33298,264.38053 273.55415,266.53306 275.61665,268.13009 C 285.5625,275.83132 278.98032,288.96681 263.88013,291.55161 C 255.23025,293.03227 245.60532,291.57946 240.04442,287.9538 C 235.78339,285.17561 233.61665,285.2039 233.61665,288.03772 C 233.61665,289.765 231.69999,290.28772 225.36665,290.28772 C 217.81791,290.28772 217.11471,290.00085 217.09369,286.91272 C 217.08088,285.03042 216.58332,284.2396 215.96869,285.12466 C 213.34321,288.90541 207.00502,291.78404 201.40789,291.73782 C 194.49668,291.68073 189.46912,288.2125 187.0218,281.8137 L 185.38638,277.53772 L 181.84439,281.63839 C 175.99912,288.40566 167.37781,292.03631 157.2685,291.98797 C 142.60552,291.91784 133.98667,285.75529 130.98778,273.19705 C 130.01527,269.12451 129.83262,269.03185 128.0308,271.69705 C 126.97456,273.25942 123.589,281.10701 120.50736,289.13617 C 113.83254,306.5272 110.39902,309.78772 98.760102,309.78772 L 91.116657,309.78772 L 91.116657,304.63276 C 91.116657,299.91976 91.532306,299.4375 95.964582,299.00776 C 103.62643,298.26488 104.66385,292.86919 99.486836,280.68816 C 94.056117,267.91017 91.788672,265.98523 90.466932,273.03075 C 89.172311,279.93165 81.901511,288.13102 75.080576,290.38213 C 70.115352,292.02081 60.523692,292.45586 55.116656,291.28765 C 49.886306,290.15761 41.580852,285.03798 40.754576,282.43459 C 38.881002,276.53146 36.358061,280.97227 35.919402,290.94531 C 35.671017,296.59268 34.499651,302.59804 33.284877,304.45203 C 30.684431,308.4208 23.520146,310.71595 15.741651,310.07218 z M 262.75951,283.43058 C 265.43402,280.75608 265.83079,277.40613 263.63386,276.04836 C 262.81833,275.54432 258.93707,274.74592 255.00886,274.27414 C 251.08065,273.80234 244.66041,271.80103 240.74165,269.82676 L 233.61665,266.23719 L 233.61665,273.01245 L 233.61665,279.78772 L 241.81389,279.78772 C 248.47592,279.78772 250.31179,280.34956 251.61665,282.78772 C 253.5467,286.39407 259.45516,286.73494 262.75951,283.43058 z M 71.016342,279.01979 C 72.827742,276.25525 73.301697,273.03945 72.796196,266.94364 C 71.895776,256.08583 69.196361,253.23992 61.597287,255.137 C 56.632182,256.37653 55.839161,257.22821 54.706301,262.53772 C 53.192876,269.63087 54.129717,277.30928 56.889956,280.43511 C 60.186777,284.16857 68.166567,283.36909 71.016342,279.01979 z M 165.77058,278.28772 C 168.614,272.88306 167.36952,258.91359 163.81291,256.31293 C 160.23693,253.6981 155.44635,253.7347 151.79487,256.40473 C 147.97565,259.1974 147.18336,274.78773 150.61189,279.68264 C 153.89187,284.36548 163.01469,283.52597 165.77058,278.28772 z M 19.11665,231.78772 L 19.11665,224.28772 L 27.366657,224.28772 L 35.616657,224.28772 L 35.616657,231.78772 L 35.616657,239.28772 L 27.366657,239.28772 L 19.11665,239.28772 L 19.11665,231.78772 z "
         id="path7573" />
    </g>
  </g>
</svg>
